<svg width="21" height="14" viewBox="0 0 21 14" fill="none" xmlns="http://www.w3.org/2000/svg">
<path d="M10.2667 1.86667C13.804 1.86667 16.9587 3.85467 18.4987 7C16.9587 10.1453 13.804 12.1333 10.2667 12.1333C6.72933 12.1333 3.57467 10.1453 2.03467 7C3.57467 3.85467 6.72933 1.86667 10.2667 1.86667ZM10.2667 0C5.6 0 1.61467 2.90267 0 7C1.61467 11.0973 5.6 14 10.2667 14C14.9333 14 18.9187 11.0973 20.5333 7C18.9187 2.90267 14.9333 0 10.2667 0ZM10.2667 4.66667C11.5547 4.66667 12.6 5.712 12.6 7C12.6 8.288 11.5547 9.33333 10.2667 9.33333C8.97867 9.33333 7.93333 8.288 7.93333 7C7.93333 5.712 8.97867 4.66667 10.2667 4.66667ZM10.2667 2.8C7.952 2.8 6.06667 4.68533 6.06667 7C6.06667 9.31467 7.952 11.2 10.2667 11.2C12.5813 11.2 14.4667 9.31467 14.4667 7C14.4667 4.68533 12.5813 2.8 10.2667 2.8Z" fill="black"/>
</svg>
