<?xml version="1.0" encoding="utf-8"?>
<!-- Generator: Adobe Illustrator 25.2.0, SVG Export Plug-In . SVG Version: 6.00 Build 0)  -->
<svg version="1.1" id="Layer_1" xmlns="http://www.w3.org/2000/svg" xmlns:xlink="http://www.w3.org/1999/xlink" x="0px" y="0px"
	 viewBox="0 0 42 42" style="enable-background:new 0 0 42 42;" xml:space="preserve">
<style type="text/css">
	.st0{fill:#231F20;}
</style>
<path class="st0" d="M39.6,35.8V12.1c0-1.4-1.1-2.6-2.5-2.6h-9.3V5.4c0-1.4-1.1-2.6-2.6-2.6h-0.6V2.2c0-1.2-1-2.2-2.2-2.2H7.6
	C6.4,0,5.3,1,5.3,2.2v0.5H4.8C3.4,2.8,2.2,4,2.2,5.4v30.5C1,36.2,0,37.4,0,38.8C0,40.6,1.5,42,3.2,42h35.5c1.7,0,3.1-1.4,3.1-3.2
	C41.8,37.4,40.8,36.2,39.6,35.8z M18.5,38.6h-7.1v-6.5h7.1V38.6z M24.2,27.2H5.7v-3.5h18.5V27.2z M24.2,19.1H5.7v-3.5h18.5V19.1z
	 M24.2,11H5.7V7.5h18.5V11z M36.3,27.2h-6.9v-3.5h6.9V27.2z M36.3,19.1h-6.9v-3.5h6.9V19.1z"/>
</svg>
