<svg width="7" height="7" viewBox="0 0 7 7" fill="none" xmlns="http://www.w3.org/2000/svg">
<path d="M0.798583 0.137014C0.615898 -0.0456715 0.319702 -0.0456715 0.137017 0.137014C-0.0456724 0.3197 -0.0456724 0.615898 0.137017 0.798584L2.83844 3.50001L0.137045 6.20143C-0.0456443 6.3841 -0.0456443 6.68032 0.137045 6.86299C0.31973 7.04567 0.615926 7.04567 0.798611 6.86299L3.5 4.16158L6.2014 6.86299C6.38407 7.04567 6.68028 7.04567 6.86296 6.86299C7.04563 6.68032 7.04563 6.3841 6.86296 6.20143L4.16156 3.50001L6.86296 0.798584C7.04568 0.615898 7.04568 0.3197 6.86296 0.137014C6.68028 -0.0456715 6.38412 -0.0456715 6.2014 0.137014L3.5 2.83845L0.798583 0.137014Z" fill="#CE0E0E"/>
</svg>
