<?xml version="1.0" encoding="utf-8"?>
<!-- Generator: Adobe Illustrator 25.2.0, SVG Export Plug-In . SVG Version: 6.00 Build 0)  -->
<svg version="1.1" id="Layer_1" xmlns="http://www.w3.org/2000/svg" xmlns:xlink="http://www.w3.org/1999/xlink" x="0px" y="0px"
	 viewBox="0 0 24 26" style="enable-background:new 0 0 24 26;" xml:space="preserve">
<style type="text/css">
	.st0{fill:#231F20;}
</style>
<path class="st0" d="M21.5,2l-2-2l-2,2l-1.9-2l-2,2l-1.9-2L9.8,2l-2-2l-2,2L3.9,0v18.2H0v3.9C0,24.3,1.7,26,3.9,26h15.6
	c2.2,0,3.9-1.7,3.9-3.9V0L21.5,2z M20.8,22.1c0,0.7-0.6,1.3-1.3,1.3s-1.3-0.6-1.3-1.3v-3.9H6.5V3.9h14.3V22.1z"/>
<path class="st0" d="M15.6,6.5H7.8v2.6h7.8V6.5z"/>
<path class="st0" d="M19.5,6.5h-2.6v2.6h2.6V6.5z"/>
<path class="st0" d="M15.6,10.4H7.8V13h7.8V10.4z"/>
<path class="st0" d="M19.5,10.4h-2.6V13h2.6V10.4z"/>
</svg>
