<?xml version="1.0" encoding="utf-8"?>
<!-- Generator: Adobe Illustrator 25.2.0, SVG Export Plug-In . SVG Version: 6.00 Build 0)  -->
<svg version="1.1" id="Layer_1" xmlns="http://www.w3.org/2000/svg" xmlns:xlink="http://www.w3.org/1999/xlink" x="0px" y="0px"
	 viewBox="0 0 45 43" style="enable-background:new 0 0 45 43;" xml:space="preserve">
<style type="text/css">
	.st0{fill:#231F20;}
</style>
<path class="st0" d="M22.2,18.6c3.6,0,6.6-2.9,6.6-6.5s-3-6.5-6.6-6.5c-3.6,0-6.6,2.9-6.6,6.5S18.5,18.6,22.2,18.6z"/>
<path class="st0" d="M12.2,12.8c0.2,0,0.4,0,0.7,0c0-0.2,0-0.4,0-0.6c0-1.7,0.5-3.4,1.4-4.9c0.9-1.5,2.2-2.6,3.8-3.4
	c-0.5-1.1-1.2-2-2.1-2.6c-0.9-0.7-2-1.1-3.2-1.2c-1.2-0.1-2.3,0.1-3.3,0.6c-1,0.5-1.9,1.3-2.5,2.3s-1,2.1-1,3.2
	c0,1.2,0.2,2.3,0.8,3.3c0.6,1,1.4,1.9,2.4,2.4C9.9,12.5,11,12.8,12.2,12.8L12.2,12.8z"/>
<path class="st0" d="M31.5,12.1c0,0.2,0,0.4,0,0.6c0.2,0,0.4,0,0.7,0c1.1,0,2.3-0.3,3.2-0.9c1-0.6,1.8-1.4,2.3-2.4
	c0.5-1,0.8-2.1,0.7-3.3c-0.1-1.1-0.4-2.2-1-3.2c-0.6-1-1.5-1.7-2.5-2.2c-1-0.5-2.2-0.7-3.3-0.6c-1.1,0.1-2.2,0.5-3.2,1.2
	c-0.9,0.7-1.7,1.6-2.1,2.6c1.6,0.8,2.9,1.9,3.8,3.4C31,8.7,31.5,10.4,31.5,12.1z"/>
<path class="st0" d="M28.1,19.3c2.8,0.5,5.4,1.5,7.9,2.8c0.4,0.2,0.7,0.4,0.9,0.7h7.4V18c0-0.2,0-0.4-0.1-0.5
	c-0.1-0.2-0.2-0.3-0.4-0.4c-3.6-1.9-7.6-2.9-11.6-2.8h-0.9C30.8,16.3,29.6,18,28.1,19.3z"/>
<path class="st0" d="M6.3,25.4c0-0.7,0.2-1.4,0.5-2c0.4-0.6,0.9-1.1,1.5-1.4c2.5-1.3,5.2-2.2,7.9-2.8c-1.6-1.3-2.7-3-3.1-4.9h-0.9
	c-4,0-8,1-11.6,2.8c-0.2,0.1-0.3,0.2-0.4,0.4C0,17.7,0,17.9,0,18.1v8.8h6.3V25.4z"/>
<path class="st0" d="M35.2,33.4h-8.3v1.9h8.3V33.4z"/>
<path class="st0" d="M42.7,25.9h-9.5v-1.4c0-0.4-0.1-0.7-0.4-1c-0.3-0.3-0.6-0.4-1-0.4c-0.4,0-0.7,0.1-1,0.4c-0.3,0.3-0.4,0.6-0.4,1
	v1.4h-2.7V22c-1.8-0.4-3.7-0.6-5.5-0.6c-4.4,0-8.7,1-12.5,3.1c-0.2,0.1-0.3,0.2-0.4,0.4C9.1,25,9,25.2,9,25.4v7.8h9.8v8.4
	c0,0.4,0.1,0.7,0.4,1c0.3,0.3,0.6,0.4,1,0.4h22.4c0.4,0,0.7-0.1,1-0.4c0.3-0.3,0.4-0.6,0.4-1V27.3c0-0.4-0.1-0.7-0.4-1
	C43.4,26.1,43,25.9,42.7,25.9z M41.3,40.3H21.7V28.7h8.7v1.3c0,0.4,0.1,0.7,0.4,1c0.3,0.3,0.6,0.4,1,0.4c0.4,0,0.7-0.1,1-0.4
	c0.3-0.3,0.4-0.6,0.4-1v-1.3h8.1V40.3z"/>
</svg>
