<?xml version="1.0" encoding="utf-8"?>
<!-- Generator: Adobe Illustrator 25.2.0, SVG Export Plug-In . SVG Version: 6.00 Build 0)  -->
<svg version="1.1" id="Layer_1" xmlns="http://www.w3.org/2000/svg" xmlns:xlink="http://www.w3.org/1999/xlink" x="0px" y="0px"
	 viewBox="0 0 39 43" style="enable-background:new 0 0 39 43;" xml:space="preserve">
<style type="text/css">
	.st0{fill:#231F20;}
</style>
<path class="st0" d="M34,4.2h-2.1V0h-4.2v4.2h-17V0H6.4v4.2H4.2C1.9,4.2,0,6.2,0,8.5l0,29.8c0,2.3,1.9,4.2,4.2,4.2H34
	c2.3,0,4.2-1.9,4.2-4.2V8.5C38.2,6.2,36.3,4.2,34,4.2z M34,38.2H4.2V17H34V38.2z M34,12.8H4.2V8.5H34V12.8z M12.8,25.5H8.5v-4.2h4.2
	V25.5z M21.2,25.5H17v-4.2h4.2V25.5z M29.8,25.5h-4.2v-4.2h4.2V25.5z M12.8,34H8.5v-4.2h4.2V34z M21.2,34H17v-4.2h4.2V34z M29.8,34
	h-4.2v-4.2h4.2V34z"/>
</svg>
