<?xml version="1.0" encoding="utf-8"?>
<!-- Generator: Adobe Illustrator 25.2.0, SVG Export Plug-In . SVG Version: 6.00 Build 0)  -->
<svg version="1.1" id="Layer_1" xmlns="http://www.w3.org/2000/svg" xmlns:xlink="http://www.w3.org/1999/xlink" x="0px" y="0px"
	 viewBox="0 0 24 26" style="enable-background:new 0 0 24 26;" xml:space="preserve">
<style type="text/css">
	.st0{fill:#231F20;}
</style>
<path class="st0" d="M20.8,2.6h-1.3V0h-2.6v2.6H6.5V0H3.9v2.6H2.6C1.2,2.6,0,3.8,0,5.2l0,18.2C0,24.8,1.2,26,2.6,26h18.2
	c1.4,0,2.6-1.2,2.6-2.6V5.2C23.4,3.8,22.2,2.6,20.8,2.6z M20.8,23.4H2.6v-13h18.2V23.4z M20.8,7.8H2.6V5.2h18.2V7.8z M7.8,15.6H5.2
	V13h2.6V15.6z M13,15.6h-2.6V13H13V15.6z M18.2,15.6h-2.6V13h2.6V15.6z M7.8,20.8H5.2v-2.6h2.6V20.8z M13,20.8h-2.6v-2.6H13V20.8z
	 M18.2,20.8h-2.6v-2.6h2.6V20.8z"/>
</svg>
