<?xml version="1.0" encoding="utf-8"?>
<!-- Generator: Adobe Illustrator 25.2.0, SVG Export Plug-In . SVG Version: 6.00 Build 0)  -->
<svg version="1.1" id="Layer_1" xmlns="http://www.w3.org/2000/svg" xmlns:xlink="http://www.w3.org/1999/xlink" x="0px" y="0px"
	 viewBox="0 0 31 26" style="enable-background:new 0 0 31 26;" xml:space="preserve">
<style type="text/css">
	.st0{fill:#231F20;}
</style>
<path class="st0" d="M3.1,21.4v-1c0-0.5,0.2-1,0.6-1.2c2.6-1.5,5.5-2.4,8.5-2.4h0.1c0.2-1.1,0.5-2.1,0.9-3c-0.3,0-0.7,0-1,0
	c-3.7,0-7.2,1-10.1,2.8C0.8,17.3,0,18.8,0,20.4v4.1h14.2c-0.6-0.9-1.1-2-1.5-3.1H3.1z"/>
<path class="st0" d="M12.2,12.2c3.4,0,6.1-2.7,6.1-6.1S15.6,0,12.2,0C8.9,0,6.1,2.7,6.1,6.1S8.9,12.2,12.2,12.2z M12.2,3.1
	c1.7,0,3.1,1.4,3.1,3.1s-1.4,3.1-3.1,3.1S9.1,7.9,9.1,6.2C9.2,4.4,10.6,3.1,12.2,3.1z"/>
<path class="st0" d="M28.7,18.4c0-0.3,0-0.6-0.1-1l1.7-1.5l-1.5-2.6L26.6,14c-0.5-0.4-1-0.7-1.7-1l-0.5-2.3h-3.1L21,13
	c-0.6,0.2-1.2,0.6-1.7,1l-2.2-0.7l-1.5,2.6l1.7,1.5c0,0.3-0.1,0.6-0.1,1s0,0.6,0.1,1l-1.7,1.5l1.5,2.6l2.2-0.7c0.5,0.4,1,0.7,1.7,1
	l0.5,2.3h3.1l0.5-2.3c0.6-0.2,1.2-0.6,1.7-1l2.2,0.7l1.5-2.6l-1.7-1.5C28.6,19,28.7,18.7,28.7,18.4z M22.9,21.4
	c-1.7,0-3.1-1.4-3.1-3.1s1.4-3.1,3.1-3.1s3.1,1.4,3.1,3.1S24.6,21.4,22.9,21.4z"/>
</svg>
