<?xml version="1.0" encoding="utf-8"?>
<!-- Generator: Adobe Illustrator 25.2.0, SVG Export Plug-In . SVG Version: 6.00 Build 0)  -->
<svg version="1.1" id="Layer_1" xmlns="http://www.w3.org/2000/svg" xmlns:xlink="http://www.w3.org/1999/xlink" x="0px" y="0px"
	 viewBox="0 0 28 43" style="enable-background:new 0 0 28 43;" xml:space="preserve">
<style type="text/css">
	.st0{fill-rule:evenodd;clip-rule:evenodd;fill:#231F20;}
</style>
<path class="st0" d="M3.3,9.4h0.8c0,0.1,0,0.1,0,0.2L5,12.8c0.2,0.9,0.6,1.8,1.3,2.4c0.6,0.6,1.3,0.9,2.2,0.9h3.3v1.8
	c0,0.3,0.2,0.5,0.5,0.5h3.9c0.3,0,0.5-0.2,0.5-0.5v-1.8h3.5c0.9,0,1.6-0.4,2.2-0.9c0.6-0.6,1-1.5,1.2-2.4l0.7-3.1c0-0.1,0-0.1,0-0.2
	h0.4c1.8,0,3.3,1.5,3.3,3.3v24.2c0,1.8-1.5,3.3-3.3,3.3v1.3c0,0.8-0.6,1.4-1.4,1.4c-0.8,0-1.4-0.6-1.4-1.4v-1.3H6.1v1.3
	c0,0.8-0.6,1.4-1.4,1.4c-0.8,0-1.4-0.6-1.4-1.4v-1.3c-1.8,0-3.3-1.5-3.3-3.3V12.8C0,10.9,1.5,9.4,3.3,9.4z M5.8,35.1
	c-0.3,0-0.6-0.3-0.6-0.6c0-0.3,0.3-0.6,0.6-0.6h16.4c0.3,0,0.6,0.3,0.6,0.6c0,0.3-0.3,0.6-0.6,0.6H5.8z M5.8,29.2
	c-0.3,0-0.6-0.3-0.6-0.6c0-0.3,0.3-0.6,0.6-0.6h16.4c0.3,0,0.6,0.3,0.6,0.6c0,0.3-0.3,0.6-0.6,0.6H5.8z M5.8,23.2
	c-0.3,0-0.6-0.3-0.6-0.6c0-0.3,0.3-0.6,0.6-0.6h16.4c0.3,0,0.6,0.3,0.6,0.6c0,0.3-0.3,0.6-0.6,0.6H5.8z M22.9,10.1H5.5l0.6,2.4
	c0.2,0.7,0.5,1.4,0.9,1.8c0.3,0.3,0.8,0.5,1.3,0.5h11.8c0.5,0,1-0.2,1.3-0.6c0.4-0.4,0.7-1.1,0.9-1.8L22.9,10.1z M5.6,0h17
	c0.2,0,0.4,0.2,0.4,0.4v2.3c0,0.2-0.2,0.4-0.4,0.4H20v5.8h-1.5V3H9.8v5.8H8.3V3H5.6C5.4,3,5.2,2.8,5.2,2.6V0.4C5.2,0.2,5.4,0,5.6,0z
	"/>
</svg>
