<?xml version="1.0" encoding="utf-8"?>
<!-- Generator: Adobe Illustrator 25.2.0, SVG Export Plug-In . SVG Version: 6.00 Build 0)  -->
<svg version="1.1" id="Layer_1" xmlns="http://www.w3.org/2000/svg" xmlns:xlink="http://www.w3.org/1999/xlink" x="0px" y="0px"
	 viewBox="0 0 28 26" style="enable-background:new 0 0 28 26;" xml:space="preserve">
<style type="text/css">
	.st0{fill:#231F20;}
</style>
<path class="st0" d="M14,10.8H0v1.5h1.2v13.6h9.9V12.2H14V10.8z"/>
<path class="st0" d="M21.2,17.6C21.2,17.6,21.3,17.6,21.2,17.6c1.8,0.1,2.9-0.5,3-1.9L25,9c0.1-1.2-0.9-2.2-1.8-2.6l0,0
	c0,0-0.4-0.1-0.7-0.2c-0.3,0-0.7,0-0.7,0c-0.8,0.1-1.5,0.6-1.5,0.6c-1.4,1-3.6,1.2-6.5,0.6c-0.7-0.1-1.5,0.3-1.6,1.1
	c-0.1,0.7,0.3,1.5,1.1,1.6c1.2,0.2,2.4,0.4,3.4,0.4s1.8-0.1,2.6-0.3v0.1l-0.5,4.2c-2.5,0.1-4,0.6-4.6,1.5c-0.8,1.3-2.2,6.3-2.6,7.9
	c-0.2,0.8,0.3,1.6,1.1,1.8c0.1,0,0.2,0,0.4,0c0.7,0,1.3-0.5,1.5-1.1c0.7-2.7,1.6-5.6,2.1-6.5C16.9,17.5,19.3,17.4,21.2,17.6z"/>
<path class="st0" d="M22.1,6.1c1.7,0,3-1.4,3-3c0-1.7-1.4-3-3-3s-3,1.4-3,3S20.5,6.1,22.1,6.1z"/>
<path class="st0" d="M27.1,14.6l0.4-5.2V9.3c0,0,0,0-0.1,0h-1.7c-0.1,0-0.1,0-0.1,0.1l-0.4,5.2c0,1.6-0.5,3.6-3.2,3.6h-3l0,0h-0.1
	c0,0,0,0,0,0.1v1.6c0,0.1,0,0.1,0.1,0.1h2.7v3.7h-0.9c-1.1,0-2.1,1-2.1,2.1c0,0.1,0,0.1,0.1,0.1H20c0.1,0,0.1,0,0.1-0.1
	c0-0.4,0.4-0.8,0.8-0.8h3.5c0.4,0,0.8,0.4,0.8,0.8c0,0.1,0,0.1,0.1,0.1h1.1c0.1,0,0.1,0,0.1-0.1c0-1.2-0.9-2.1-2.1-2.1h-0.9v-3.9
	C26.3,19.8,26.9,17.1,27.1,14.6z"/>
<path class="st0" d="M11.4,9.2H6.3L4.5,2.8L4.4,2.7L3.5,3c0,0,0,0-0.1,0c0,0,0,0,0,0.1l1.9,7.1c0,0,0,0.1,0.1,0.1h5.9
	c0,0,0.1,0,0.1-0.1L11.4,9.2C11.5,9.2,11.4,9.2,11.4,9.2z"/>
</svg>
