<?xml version="1.0" encoding="utf-8"?>
<!-- Generator: Adobe Illustrator 25.2.0, SVG Export Plug-In . SVG Version: 6.00 Build 0)  -->
<svg version="1.1" id="Layer_1" xmlns="http://www.w3.org/2000/svg" xmlns:xlink="http://www.w3.org/1999/xlink" x="0px" y="0px"
	 viewBox="0 0 50 43" style="enable-background:new 0 0 50 43;" xml:space="preserve">
<style type="text/css">
	.st0{fill:#231F20;}
</style>
<path class="st0" d="M35.9,42.4c-0.2,0.4-0.6,0.6-1.1,0.6H14.6c-0.4,0-0.8-0.2-1.1-0.6c-0.2-0.4-0.3-0.8-0.1-1.2
	c0.5-1.1,1.6-1.8,2.8-1.8h2.4v-2.1h12.1v2.1h2.4c1.2,0,2.3,0.7,2.8,1.8C36.1,41.6,36.1,42.1,35.9,42.4z M16.1,12
	c-0.7,2.5-2.9,4.3-5.6,4.3c-3.2,0-5.8-2.6-5.8-5.8c0-2.7,1.8-5,4.3-5.6c-0.1,0.3,0,0.1,0,5.6c0,0.8,0.7,1.5,1.5,1.5
	C16,12,15.8,12,16.1,12z"/>
<path class="st0" d="M16.3,10.5c0,0.3-0.2,0.5-0.5,0.5h-5.3c-0.3,0-0.5-0.2-0.5-0.5V5.2c0-0.3,0.2-0.5,0.5-0.5
	C13.7,4.6,16.3,7.3,16.3,10.5z M15.8,19.4H5.1c-0.3,0-0.5-0.2-0.5-0.5s0.2-0.5,0.5-0.5h10.6c0.3,0,0.5,0.2,0.5,0.5
	S16.1,19.4,15.8,19.4z M15.8,22.4H5.1c-0.3,0-0.5-0.2-0.5-0.5c0-0.3,0.2-0.5,0.5-0.5h10.6c0.3,0,0.5,0.2,0.5,0.5
	C16.3,22.2,16.1,22.4,15.8,22.4z M15.8,25.5H5.1c-0.3,0-0.5-0.2-0.5-0.5s0.2-0.5,0.5-0.5h10.6c0.3,0,0.5,0.2,0.5,0.5
	S16.1,25.5,15.8,25.5z M25.7,16.9v7.5c0,0.6-0.5,1-1,1h-2.1c-0.6,0-1-0.5-1-1v-7.5c0-0.6,0.5-1,1-1h2.1
	C25.3,15.9,25.7,16.3,25.7,16.9z M32.1,11.6v12.8c0,0.6-0.5,1-1,1h-2.1c-0.6,0-1-0.5-1-1V11.6c0-0.6,0.5-1,1-1H31
	C31.6,10.6,32.1,11,32.1,11.6z M38.4,16.9v7.5c0,0.6-0.5,1-1,1h-2.2c-0.6,0-1-0.5-1-1v-7.5c0-0.6,0.5-1,1-1h2.2
	C38,15.9,38.4,16.3,38.4,16.9z M44.8,13.8v10.7c0,0.6-0.5,1-1,1h-2.2c-0.6,0-1-0.5-1-1V13.8c0-0.6,0.5-1,1-1h2.2
	C44.3,12.7,44.8,13.2,44.8,13.8z"/>
<path class="st0" d="M36.3,13.2c-0.1,0-0.3-0.1-0.4-0.2l-6-7.1l-6,5.8c-0.2,0.2-0.5,0.2-0.7,0c-0.2-0.2-0.2-0.5,0-0.7l6.4-6.1
	c0.1-0.1,0.2-0.2,0.4-0.1c0.1,0,0.3,0.1,0.4,0.2l6.1,7.2l6-4.2c0.2-0.2,0.6-0.1,0.7,0.1s0.1,0.6-0.1,0.7l-6.4,4.5
	C36.5,13.2,36.4,13.2,36.3,13.2z M24.7,31.5c-0.4,0-0.7,0.3-0.7,0.7s0.3,0.7,0.7,0.7c0.4,0,0.7-0.3,0.7-0.7S25.1,31.5,24.7,31.5z"/>
<path class="st0" d="M46.9,0H2.6C1.1,0,0,1.1,0,2.6c0,0.8,0,33.1,0,31.1c0,1.4,1.1,2.6,2.6,2.6h44.3c1.4,0,2.6-1.2,2.6-2.6
	c0-3.9,0-27.2,0-31.1C49.4,1.1,48.3,0,46.9,0z M24.7,33.9c-1,0-1.7-0.8-1.7-1.7c0-1,0.8-1.7,1.7-1.7c1,0,1.7,0.8,1.7,1.7
	C26.5,33.1,25.7,33.9,24.7,33.9z M47.4,28.1H2.1V2.6c0-0.3,0.2-0.5,0.5-0.5h44.3c0.3,0,0.5,0.2,0.5,0.5L47.4,28.1L47.4,28.1z"/>
</svg>
