<?xml version="1.0" encoding="utf-8"?>
<!-- Generator: Adobe Illustrator 25.2.0, SVG Export Plug-In . SVG Version: 6.00 Build 0)  -->
<svg version="1.1" id="Layer_1" xmlns="http://www.w3.org/2000/svg" xmlns:xlink="http://www.w3.org/1999/xlink" x="0px" y="0px"
	 viewBox="0 0 14 10" style="enable-background:new 0 0 14 10;" xml:space="preserve">
<style type="text/css">
	.st0{fill:#231F20;}
</style>
<path class="st0" d="M12.3,0H1.7C0.8,0,0,0.8,0,1.7v6.1c0,0.9,0.8,1.7,1.7,1.7h10.6c0.9,0,1.7-0.8,1.7-1.7V1.7C14,0.8,13.2,0,12.3,0
	z M11.5,1.1L7,4L2.5,1.1H11.5z M12.3,8.4H1.7c-0.3,0-0.6-0.3-0.6-0.6V1.7l5.5,3.6c0,0,0,0,0,0c0,0,0,0,0,0c0,0,0.1,0,0.1,0.1
	c0,0,0,0,0,0c0,0,0.1,0,0.2,0c0,0,0,0,0,0c0,0,0,0,0,0c0.1,0,0.1,0,0.2,0c0,0,0,0,0,0c0,0,0.1,0,0.1-0.1c0,0,0,0,0,0c0,0,0,0,0,0
	l5.5-3.6v6.1C12.9,8.1,12.6,8.4,12.3,8.4z"/>
</svg>
