<?xml version="1.0" encoding="utf-8"?>
<!-- Generator: Adobe Illustrator 25.2.0, SVG Export Plug-In . SVG Version: 6.00 Build 0)  -->
<svg version="1.1" id="Layer_1" xmlns="http://www.w3.org/2000/svg" xmlns:xlink="http://www.w3.org/1999/xlink" x="0px" y="0px"
	 viewBox="0 0 24 26" style="enable-background:new 0 0 24 26;" xml:space="preserve">
<style type="text/css">
	.st0{fill:#231F20;}
</style>
<path class="st0" d="M5.2,18.2h9.1v2.6H5.2V18.2z M5.2,13h13v2.6h-13C5.2,15.6,5.2,13,5.2,13z M5.2,7.8h13v2.6h-13
	C5.2,10.4,5.2,7.8,5.2,7.8z M20.8,2.6h-5.4c-0.5-1.5-2-2.6-3.7-2.6S8.6,1.1,8,2.6H2.6c-0.2,0-0.4,0-0.5,0.1C1.6,2.8,1.1,3,0.8,3.4
	C0.5,3.6,0.3,3.9,0.2,4.2C0.1,4.5,0,4.8,0,5.2v18.2c0,0.4,0.1,0.7,0.2,1s0.3,0.6,0.6,0.8c0.4,0.4,0.8,0.6,1.3,0.7c0.2,0,0.3,0,0.5,0
	h18.2c1.4,0,2.6-1.2,2.6-2.6V5.2C23.4,3.8,22.2,2.6,20.8,2.6z M11.7,2.3c0.5,0,1,0.4,1,1s-0.4,1-1,1s-1-0.4-1-1S11.2,2.3,11.7,2.3z
	 M20.8,23.4H2.6V5.2h18.2C20.8,5.2,20.8,23.4,20.8,23.4z"/>
</svg>
