<?xml version="1.0" encoding="utf-8"?>
<!-- Generator: Adobe Illustrator 25.2.0, SVG Export Plug-In . SVG Version: 6.00 Build 0)  -->
<svg version="1.1" id="Layer_1" xmlns="http://www.w3.org/2000/svg" xmlns:xlink="http://www.w3.org/1999/xlink" x="0px" y="0px"
	 viewBox="0 0 73 69.1" style="enable-background:new 0 0 73 69.1;" xml:space="preserve">
<g>
	<g>
		<path d="M63.3,54.3h-3.9V24.1c3-2,5-5.5,5-9.4c0-6.2-5.1-11.3-11.3-11.3c-2.3,0-4.4,0.7-6.1,1.8H12.6c0,0,0,0,0,0
			c-3.3,0-5.9,2.7-5.9,6v6.1c0,1.7,1.4,3.1,3.1,3.1h6.8v39.2c0,3.3,2.7,5.9,6,5.9c3.9,0-14.1,0,38,0c3.3,0,6-2.7,6-6v-2.3
			C66.4,55.7,65,54.3,63.3,54.3z M62.3,14.8c0,5.1-4.2,9.3-9.3,9.3s-9.3-4.2-9.3-9.3c0-5.1,4.2-9.3,9.3-9.3S62.3,9.6,62.3,14.8z
			 M18.5,59.7V11.3c0,0,0,0,0-0.1c0-1.3-0.5-2.7-1.5-3.8c0,0,0,0,0-0.1h27.6c-1.8,2-2.8,4.6-2.8,7.5C41.8,21,46.8,26,53.1,26
			c1.5,0,3-0.3,4.3-0.8v29.1H29.5c-1.7,0-3.1,1.4-3.1,3.1v2.3c0,2.2-1.8,3.9-4,3.9c0,0,0,0,0,0C20.3,63.6,18.5,61.9,18.5,59.7z"/>
		<path d="M24,13.9h13.1c0.6,0,1-0.4,1-1c0-0.6-0.4-1-1-1H24c-0.6,0-1,0.4-1,1C23,13.4,23.4,13.9,24,13.9z"/>
		<path d="M23,18.4c0,0.6,0.4,1,1,1h15.2c0.6,0,1-0.4,1-1c0-0.6-0.4-1-1-1H24C23.5,17.4,23,17.8,23,18.4z"/>
		<path d="M23,23.9c0,0.6,0.4,1,1,1h18c0.6,0,1-0.4,1-1s-0.4-1-1-1H24C23.5,22.9,23,23.3,23,23.9z"/>
		<path d="M25,27.9c-1,0-2,0.9-2,2c0,0.3,0,19.2,0,19c0,1.1,1,2,2,2h25.8c1.1,0,2-0.9,2-2c0-6.4,0-7.3,0-19c0-1.1-0.9-2-2-2
			C39,27.9,29.8,27.9,25,27.9z M50.8,41.9H31.7v-5h19.1V41.9z M31.7,48.9v-5h19.1l0,5H31.7z M50.8,34.9H31.7v-5h19.1V34.9z"/>
		<path d="M50.1,18.1c-0.4-0.2-0.8-0.1-1,0.2c-0.4,0.5-0.2,1.2,0.3,1.5c0.9,0.4,1.9,0.6,2.9,0.7v0.9c0,0.4,0.3,0.7,0.7,0.7
			c0.4,0,0.7-0.3,0.7-0.7v-0.9c2.4-0.2,3.5-1.8,3.5-3.2c0-2.2-1.7-2.8-3.5-3.3v-3.2c0.7,0,1.3,0.2,1.9,0.4c0.6,0.3,1.2-0.2,1.2-0.8
			c0-0.4-0.2-0.7-0.6-0.8c-0.7-0.3-1.6-0.5-2.5-0.5V8.2c0-0.4-0.3-0.7-0.7-0.7c-0.4,0-0.7,0.3-0.7,0.7v0.8c-2.1,0.3-3.4,1.5-3.4,3.3
			c0,2,1.7,2.7,3.4,3.2v3.1C51.6,18.6,50.8,18.4,50.1,18.1z M50.8,12.3c0-0.9,0.9-1.3,1.5-1.4v2.7C51.4,13.4,50.8,13,50.8,12.3z
			 M55.4,17.2c0,0.5-0.2,1.3-1.7,1.5V16C54.7,16.2,55.4,16.5,55.4,17.2z"/>
	</g>
</g>
</svg>
