<?xml version="1.0" encoding="utf-8"?>
<!-- Generator: Adobe Illustrator 25.2.0, SVG Export Plug-In . SVG Version: 6.00 Build 0)  -->
<svg version="1.1" id="Layer_1" xmlns="http://www.w3.org/2000/svg" xmlns:xlink="http://www.w3.org/1999/xlink" x="0px" y="0px"
	 viewBox="0 0 26 26" style="enable-background:new 0 0 26 26;" xml:space="preserve">
<style type="text/css">
	.st0{fill:#231F20;}
</style>
<path class="st0" d="M20.8,13h-5.2v1.9h5.2V13z"/>
<path class="st0" d="M20.8,16.9h-5.2v1.9h5.2V16.9z"/>
<path class="st0" d="M23.4,6.5h-6.5V2.6c0-1.4-1.2-2.6-2.6-2.6h-2.6c-1.4,0-2.6,1.2-2.6,2.6v3.9H2.6C1.2,6.5,0,7.7,0,9.1v14.3
	C0,24.8,1.2,26,2.6,26h20.8c1.4,0,2.6-1.2,2.6-2.6V9.1C26,7.7,24.8,6.5,23.4,6.5z M11.7,6.5V2.6h2.6v3.9v2.6h-2.6
	C11.7,9.1,11.7,6.5,11.7,6.5z M23.4,23.4H2.6V9.1h6.5c0,1.4,1.2,2.6,2.6,2.6h2.6c1.4,0,2.6-1.2,2.6-2.6h6.5
	C23.4,9.1,23.4,23.4,23.4,23.4z"/>
<path class="st0" d="M9.1,16.9c1.1,0,1.9-0.9,1.9-1.9s-0.8-2-1.9-2s-2,0.9-2,1.9S8,16.9,9.1,16.9z"/>
<path class="st0" d="M11.8,18.4c-0.8-0.4-1.7-0.6-2.7-0.6S7.2,18,6.4,18.4c-0.7,0.3-1.2,1-1.2,1.8v0.6H13v-0.6
	C13,19.4,12.5,18.7,11.8,18.4z"/>
</svg>
