<?xml version="1.0" encoding="utf-8"?>
<!-- Generator: Adobe Illustrator 25.2.0, SVG Export Plug-In . SVG Version: 6.00 Build 0)  -->
<svg version="1.1" id="Layer_1" xmlns="http://www.w3.org/2000/svg" xmlns:xlink="http://www.w3.org/1999/xlink" x="0px" y="0px"
	 viewBox="0 0 28 26" style="enable-background:new 0 0 28 26;" xml:space="preserve">
<style type="text/css">
	.st0{fill:#231F20;}
</style>
<path class="st0" d="M10.4,7.8v7.8l6.1,3.8l1-1.6l-5.2-3.1V7.8H10.4z"/>
<path class="st0" d="M20.7,13c0.1,0.4,0.1,0.9,0.1,1.3c0,5.1-4,9.1-9.1,9.1s-9.1-4-9.1-9.1s4-9.1,9.1-9.1c0.9,0,1.8,0.1,2.6,0.4V2.9
	c-0.8-0.2-1.7-0.3-2.6-0.3C5.2,2.6,0,7.8,0,14.3S5.2,26,11.7,26s11.7-5.2,11.7-11.7c0-0.4,0-0.9-0.1-1.3H20.7z"/>
<path class="st0" d="M23.4,3.9V0h-2.6v3.9h-3.9v2.6h3.9v3.9h2.6V6.5h3.9V3.9H23.4z"/>
</svg>
