<?xml version="1.0" encoding="utf-8"?>
<!-- Generator: Adobe Illustrator 25.2.0, SVG Export Plug-In . SVG Version: 6.00 Build 0)  -->
<svg version="1.1" id="Layer_1" xmlns="http://www.w3.org/2000/svg" xmlns:xlink="http://www.w3.org/1999/xlink" x="0px" y="0px"
	 viewBox="0 0 15 14" style="enable-background:new 0 0 15 14;" xml:space="preserve">
<style type="text/css">
	.st0{fill:#231F20;}
</style>
<path class="st0" d="M7,7.5c2.1,0,3.8-1.6,3.8-3.7C10.8,1.7,9.1,0,7,0S3.2,1.6,3.2,3.7C3.2,5.8,4.9,7.5,7,7.5z M7,1.2
	c1.4,0,2.6,1.2,2.6,2.6S8.4,6.3,7,6.3S4.4,5.1,4.4,3.7S5.6,1.2,7,1.2z"/>
<path class="st0" d="M9.5,7.8C9.3,7.8,9.1,7.8,8.9,8L7,10.2L5.1,8C4.9,7.8,4.7,7.8,4.5,7.8C1.8,8.7,0,10.9,0,13.4
	C0,13.7,0.3,14,0.6,14h12.8c0.3,0,0.6-0.3,0.6-0.6C14,10.9,12.2,8.7,9.5,7.8z M1.2,12.8c0.2-1.6,1.4-3,3.3-3.8l2.1,2.4
	c0.2,0.3,0.7,0.3,0.9,0l2.1-2.4c1.8,0.7,3,2.1,3.3,3.8H1.2z"/>
</svg>
