<?xml version="1.0" encoding="utf-8"?>
<!-- Generator: Adobe Illustrator 25.2.0, SVG Export Plug-In . SVG Version: 6.00 Build 0)  -->
<svg version="1.1" id="Layer_1" xmlns="http://www.w3.org/2000/svg" xmlns:xlink="http://www.w3.org/1999/xlink" x="0px" y="0px"
	 viewBox="0 0 24 26" style="enable-background:new 0 0 24 26;" xml:space="preserve">
<style type="text/css">
	.st0{fill:#231F20;}
</style>
<path class="st0" d="M20.8,2.6h-1.3V0h-2.6v2.6H6.5V0H3.9v2.6H2.6C1.2,2.6,0,3.8,0,5.2v18.2C0,24.8,1.2,26,2.6,26h18.2
	c1.4,0,2.6-1.2,2.6-2.6V5.2C23.4,3.8,22.2,2.6,20.8,2.6z M20.8,23.4H2.6v-13h18.2C20.8,10.4,20.8,23.4,20.8,23.4z M2.6,7.8V5.2h18.2
	v2.6C20.8,7.8,2.6,7.8,2.6,7.8z M9.8,21.4l7.7-7.7l-1.4-1.4l-6.3,6.3l-2.7-2.7l-1.4,1.4L9.8,21.4z"/>
</svg>
