<?xml version="1.0" encoding="utf-8"?>
<!-- Generator: Adobe Illustrator 25.2.0, SVG Export Plug-In . SVG Version: 6.00 Build 0)  -->
<svg version="1.1" id="Layer_1" xmlns="http://www.w3.org/2000/svg" xmlns:xlink="http://www.w3.org/1999/xlink" x="0px" y="0px"
	 viewBox="0 0 25 26" style="enable-background:new 0 0 25 26;" xml:space="preserve">
<style type="text/css">
	.st0{fill:#231F20;}
</style>
<path class="st0" d="M10.4,22.8H2.5V10.1h17.8v5.6l2.5-2.5V5.1c0-1.4-1.1-2.5-2.5-2.5H19V0h-2.5v2.5H6.3V0H3.8v2.5H2.5
	C1.1,2.5,0,3.7,0,5.1v17.8c0,1.4,1.1,2.5,2.5,2.5h10.4L10.4,22.8z M2.5,5.1h17.8v2.5H2.5V5.1z M17.2,26l-4.5-4.5l1.8-1.8l2.7,2.7
	l5.4-5.4l1.8,1.8L17.2,26z M9.4,15.2l2,2L9.6,19l-2-2l-2,2l-1.8-1.8l2-2l-2-2l1.8-1.8l2,2l2-2l1.8,1.8L9.4,15.2z"/>
</svg>
