<?xml version="1.0" encoding="utf-8"?>
<!-- Generator: Adobe Illustrator 25.2.0, SVG Export Plug-In . SVG Version: 6.00 Build 0)  -->
<svg version="1.1" id="Capa_1" xmlns="http://www.w3.org/2000/svg" xmlns:xlink="http://www.w3.org/1999/xlink" x="0px" y="0px"
	 viewBox="0 0 891 891" style="enable-background:new 0 0 891 891;" xml:space="preserve">
<style type="text/css">
	.st0{fill:#231F20;}
</style>
<g>
	<path class="st0" d="M2.8,180.9c46.6,134,144.7,286.2,282.9,424.4s290.4,236.3,424.4,282.9c18.2,6.3,38.3,1.8,52-11.8l92.7-92.7
		l21.6-21.6c19.5-19.5,19.5-51.2,0-70.7L732.9,548c-19.5-19.5-51.2-19.5-70.7,0l-38.9,38.9c-20.2,20.2-52.4,22.2-75,4.6
		c-44.7-34.8-89-73.9-131.9-116.8s-82-87.2-116.8-131.9c-17.6-22.6-15.6-54.7,4.6-75l38.9-38.9c19.5-19.5,19.5-51.2,0-70.7
		L199.6,14.7c-19.5-19.5-51.2-19.5-70.7,0l-21.6,21.6L14.6,129C1,142.6-3.5,162.7,2.8,180.9z"/>
</g>
</svg>
