<?xml version="1.0" encoding="utf-8"?>
<!-- Generator: Adobe Illustrator 25.2.0, SVG Export Plug-In . SVG Version: 6.00 Build 0)  -->
<svg version="1.1" id="Layer_1" xmlns="http://www.w3.org/2000/svg" xmlns:xlink="http://www.w3.org/1999/xlink" x="0px" y="0px"
	 viewBox="0 0 29 26" style="enable-background:new 0 0 29 26;" xml:space="preserve">
<style type="text/css">
	.st0{fill:#231F20;}
</style>
<path class="st0" d="M28.9,0l-2.4,2.4L24.1,0l-2.4,2.4L19.3,0l-2.4,2.4L14.4,0L12,2.4L9.6,0L7.2,2.4L4.8,0L2.4,2.4L0,0v23.1
	C0,24.7,1.3,26,2.9,26H26c1.6,0,2.9-1.3,2.9-2.9V0z M13,23.1H2.9v-8.7H13V23.1z M26,23.1H15.9v-2.9H26V23.1z M26,17.3H15.9v-2.9H26
	V17.3z M26,11.6H2.9V7.2H26V11.6z"/>
</svg>
