<svg width="14" height="14" viewBox="0 0 14 14" fill="none" xmlns="http://www.w3.org/2000/svg">
<path d="M9.91667 12.1975H1.41667V3.54167H6.375V2.125H1.41667C0.6375 2.125 0 2.7625 0 3.54167V12.0417C0 12.8208 0.6375 13.4583 1.41667 13.4583H9.91667C10.6958 13.4583 11.3333 12.8208 11.3333 12.0417V7.08333H9.91667V12.1975Z" fill="white"/>
<path d="M11.3327 0H9.91602V2.125H7.79102C7.7981 2.13208 7.79102 3.54167 7.79102 3.54167H9.91602V5.65958C9.9231 5.66667 11.3327 5.65958 11.3327 5.65958V3.54167H13.4577V2.125H11.3327V0Z" fill="white"/>
<path d="M8.50065 4.95825H2.83398V6.37492H8.50065V4.95825Z" fill="white"/>
<path d="M2.83398 7.08325V8.49992H8.50065V7.08325H6.37565H2.83398Z" fill="white"/>
<path d="M8.50065 9.20825H2.83398V10.6249H8.50065V9.20825Z" fill="white"/>
</svg>
