<?xml version="1.0" encoding="utf-8"?>
<!-- Generator: Adobe Illustrator 25.2.0, SVG Export Plug-In . SVG Version: 6.00 Build 0)  -->
<svg version="1.1" id="Layer_1" xmlns="http://www.w3.org/2000/svg" xmlns:xlink="http://www.w3.org/1999/xlink" x="0px" y="0px"
	 viewBox="0 0 26 26" style="enable-background:new 0 0 26 26;" xml:space="preserve">
<style type="text/css">
	.st0{fill:#231F20;}
</style>
<path class="st0" d="M13,0C5.8,0,0,5.8,0,13s5.8,13,13,13h6.5v-2.6H13C7.4,23.4,2.6,18.6,2.6,13S7.4,2.6,13,2.6S23.4,7.4,23.4,13
	v1.9c0,1-0.9,2-1.9,2s-2-1-2-2V13c0-3.6-2.9-6.5-6.5-6.5S6.5,9.4,6.5,13s2.9,6.5,6.5,6.5c1.8,0,3.4-0.7,4.6-1.9
	c0.8,1.2,2.3,1.9,3.8,1.9c2.6,0,4.5-2.1,4.5-4.6V13C26,5.8,20.2,0,13,0L13,0z M13,16.9c-2.2,0-3.9-1.7-3.9-3.9s1.7-3.9,3.9-3.9
	s3.9,1.7,3.9,3.9S15.2,16.9,13,16.9z"/>
</svg>
