<svg width="28" height="28" viewBox="0 0 28 28" fill="none" xmlns="http://www.w3.org/2000/svg">
<g clip-path="url(#clip0_1500_1068)">
<path d="M27.8309 4.37874C27.8309 3.32146 26.9737 2.46431 25.9165 2.46431H22.6791V0.781C22.6791 0.349768 22.3293 0 21.8981 0H20.2113C19.7818 0 19.4294 0.349768 19.4294 0.781V2.4652H8.67955V0.781C8.67955 0.349768 8.32978 0 7.89855 0H6.32415C5.89292 0 5.54315 0.349768 5.54315 0.781V2.4652H2.0809C1.02363 2.4652 0.166473 3.32235 0.166473 4.37962V11.2014H1.17504V26.0324C1.17504 27.1207 2.0561 28.0009 3.14348 28.0009H24.7441C25.8323 28.0009 26.7125 27.1207 26.7125 26.0324V11.2005H27.8344L27.8309 4.37874ZM23.5752 22.7836C23.5752 23.8719 22.695 24.752 21.6068 24.752H6.39145C5.30407 24.752 4.42301 23.8719 4.42301 22.7836V11.2005H23.5743V22.7836H23.5752Z" fill="white"/>
<path d="M10.2469 13.3275H7.11135V16.5764H10.2469V13.3275Z" fill="white"/>
<path d="M15.6227 13.3275H12.4871V16.5764H15.6227V13.3275Z" fill="white"/>
<path d="M20.9985 13.3275H17.8621V16.5764H20.9985V13.3275Z" fill="white"/>
<path d="M10.2469 19.0398H7.11135V22.2878H10.2469V19.0398Z" fill="white"/>
<path d="M15.6227 19.0398H12.4871V22.2878H15.6227V19.0398Z" fill="white"/>
<path d="M20.9985 19.0398H17.8621V22.2878H20.9985V19.0398Z" fill="white"/>
</g>
<defs>
<clipPath id="clip0_1500_1068">
<rect width="28.0009" height="28" fill="white"/>
</clipPath>
</defs>
</svg>
