<svg width="3" height="11" viewBox="0 0 3 11" fill="none" xmlns="http://www.w3.org/2000/svg">
<path d="M0 1.2419C0 1.92668 0.557115 2.4838 1.2419 2.4838C1.92668 2.4838 2.48379 1.92668 2.48379 1.2419C2.48379 0.557117 1.92668 2.38419e-06 1.2419 2.38419e-06C0.557115 2.38419e-06 0 0.557117 0 1.2419Z" fill="#808080"/>
<path d="M0 9.04808C0 9.73286 0.557115 10.29 1.2419 10.29C1.92668 10.29 2.48379 9.73286 2.48379 9.04808C2.48379 8.3633 1.92668 7.80619 1.2419 7.80619C0.557115 7.80619 0 8.3633 0 9.04808Z" fill="#808080"/>
<path d="M0 5.14494C0 5.82973 0.557115 6.38684 1.2419 6.38684C1.92668 6.38684 2.48379 5.82973 2.48379 5.14494C2.48379 4.46016 1.92668 3.90305 1.2419 3.90305C0.557115 3.90305 0 4.46016 0 5.14494Z" fill="#808080"/>
</svg>
