<svg width="64" height="65" viewBox="0 0 64 65" fill="none" xmlns="http://www.w3.org/2000/svg">
<path d="M23.8344 19.2556L23.513 19.4838L23.3689 19.7259L23.2027 20.0142C23.1038 20.2098 23.0456 20.4234 23.0315 20.6421C23.0174 20.8608 23.0477 21.0801 23.1206 21.2867C23.1935 21.4934 23.3075 21.6832 23.4557 21.8447C23.6039 22.0061 23.7832 22.1359 23.9829 22.2262L24.2932 22.3464L24.6134 22.3865C24.718 22.3578 24.8203 22.3217 24.9197 22.2784C25.0266 22.258 25.1299 22.2216 25.226 22.1704C25.4312 22.1041 25.6213 21.998 25.7855 21.8582C25.948 21.7116 26.0806 21.5349 26.176 21.3379C26.2761 21.1424 26.3309 20.9269 26.3362 20.7074C26.3445 20.4851 26.3117 20.2631 26.2393 20.0528L26.1312 19.7465L25.9211 19.4762L25.689 19.252C25.5733 19.2228 25.4535 19.2133 25.3347 19.2239C25.1392 19.1238 24.9237 19.069 24.7041 19.0636C24.4877 19.0516 24.271 19.0825 24.0666 19.1546C23.9873 19.1838 23.9098 19.2175 23.8344 19.2556V19.2556Z" fill="white"/>
<path d="M16.4513 18.3396L16.181 18.5497L15.9567 18.7819L15.7225 19.0941C15.6236 19.2897 15.5654 19.5033 15.5513 19.722C15.5372 19.9407 15.5675 20.16 15.6404 20.3667C15.7133 20.5734 15.8273 20.7632 15.9755 20.9246C16.1237 21.0861 16.303 21.2159 16.5027 21.3062L16.813 21.4263L17.1332 21.4664C17.2378 21.4378 17.3401 21.4017 17.4395 21.3584C17.5465 21.338 17.6497 21.3016 17.7458 21.2504C17.951 21.1841 18.1411 21.078 18.3053 20.9382C18.4678 20.7916 18.6004 20.6149 18.6958 20.4178C18.7959 20.2224 18.8507 20.0069 18.856 19.7873C18.8643 19.565 18.8315 19.3431 18.7591 19.1327L18.651 18.8265L18.4409 18.5562L18.2088 18.332C18.122 18.2618 18.0247 18.2057 17.9205 18.1658C17.7251 18.0656 17.5096 18.0109 17.29 18.0055C17.1006 18.0487 16.9203 18.1253 16.7575 18.2316C16.6529 18.26 16.5505 18.2961 16.4513 18.3396V18.3396Z" fill="white"/>
<path d="M11.3567 28.9565L11.0864 29.1666L10.8621 29.3988L10.6959 29.687C10.5971 29.8826 10.5389 30.0962 10.5248 30.3149C10.5107 30.5336 10.541 30.7529 10.6139 30.9596C10.6868 31.1663 10.8008 31.3561 10.9489 31.5175C11.0971 31.679 11.2765 31.8088 11.4762 31.8991L11.7864 32.0192L12.1067 32.0593C12.2112 32.0307 12.3136 31.9946 12.413 31.9513C12.5199 31.9309 12.6232 31.8945 12.7193 31.8433C12.9245 31.777 13.1146 31.6709 13.2788 31.5311C13.4413 31.3845 13.5739 31.2078 13.6692 31.0107C13.7693 30.8153 13.8241 30.5998 13.8295 30.3802C13.8378 30.1579 13.8049 29.936 13.7325 29.7256L13.6245 29.4194L13.4144 29.1491L13.2072 29.05C13.1205 28.9798 13.0232 28.9237 12.919 28.8838C12.7235 28.7836 12.508 28.7289 12.2885 28.7235C12.0721 28.7114 11.8554 28.7423 11.6509 28.8145C11.5495 28.8545 11.4511 28.9019 11.3567 28.9565V28.9565Z" fill="white"/>
<path d="M19.8563 33.0378L19.586 33.2479L19.3618 33.4801L19.1956 33.7683C19.0967 33.9639 19.0385 34.1775 19.0244 34.3962C19.0103 34.6149 19.0406 34.8342 19.1135 35.0408C19.1864 35.2475 19.3004 35.4373 19.4486 35.5988C19.5968 35.7602 19.7761 35.89 19.9758 35.9803L20.3091 36.1115L20.6293 36.1516C20.7339 36.1229 20.8362 36.0868 20.9356 36.0436C21.0426 36.0231 21.1458 35.9867 21.2419 35.9355C21.4471 35.8692 21.6372 35.7632 21.8014 35.6234C21.9639 35.4767 22.0965 35.3 22.1919 35.103C22.292 34.9075 22.3468 34.692 22.3521 34.4725C22.3605 34.2502 22.3276 34.0283 22.2552 33.8179L22.1472 33.5116L21.937 33.2413L21.7049 33.0171C21.6181 32.9469 21.5208 32.8909 21.4167 32.8509C21.2212 32.7508 21.0057 32.696 20.7861 32.6907C20.5697 32.6786 20.353 32.7095 20.1486 32.7816C20.0438 32.8582 19.946 32.9439 19.8563 33.0378Z" fill="white"/>
<path d="M16.9024 44.6791L16.6321 44.8893L16.4309 45.1324L16.2647 45.4207C16.1658 45.6163 16.1076 45.8298 16.0935 46.0486C16.0794 46.2673 16.1097 46.4866 16.1826 46.6932C16.2555 46.8999 16.3695 47.0897 16.5177 47.2512C16.6659 47.4126 16.8452 47.5424 17.0449 47.6327L17.3552 47.7529L17.6754 47.793C17.78 47.7643 17.8823 47.7282 17.9817 47.6849C18.0887 47.6645 18.1919 47.6281 18.288 47.5769C18.4932 47.5106 18.6833 47.4045 18.8475 47.2647C19.01 47.1181 19.1426 46.9414 19.238 46.7444C19.3381 46.5489 19.3929 46.3334 19.3982 46.1139C19.4065 45.8916 19.3737 45.6696 19.3013 45.4593L19.1932 45.153L18.9831 44.8827L18.751 44.6585C18.6642 44.5883 18.5669 44.5322 18.4627 44.4923C18.2673 44.3922 18.0518 44.3374 17.8322 44.332C17.6158 44.32 17.3991 44.3509 17.1947 44.423C17.0899 44.4996 16.9921 44.5853 16.9024 44.6791V44.6791Z" fill="white"/>
<path d="M45.1927 24.4264C44.9117 24.4585 44.6436 24.5618 44.4137 24.7266C44.1839 24.8913 43.9999 25.1121 43.8794 25.3679L33.8067 46.389C33.6817 46.645 33.6248 46.9289 33.6414 47.2133C33.6579 47.4977 33.7474 47.773 33.9012 48.0128C34.055 48.2526 34.2679 48.4488 34.5194 48.5826C34.771 48.7163 35.0527 48.783 35.3375 48.7763L61.4329 48.3921C61.7443 48.3901 62.0488 48.3005 62.3117 48.1337C62.5746 47.9669 62.7852 47.7295 62.9196 47.4486C63.054 47.1678 63.1067 46.8548 63.0717 46.5454C63.0366 46.236 62.9153 45.9427 62.7215 45.699L46.7228 25.1303C46.5538 24.8871 46.3227 24.6936 46.0537 24.5699C45.7846 24.4461 45.4873 24.3965 45.1927 24.4264ZM51.3536 36.4689L47.1513 45.2216L44.2989 45.2711L49.5965 34.1996L51.3536 36.4689ZM50.8825 45.1683L53.636 39.4139L58.0136 45.0445L50.8825 45.1683ZM47.3202 31.2717L40.5736 45.3414L37.9894 45.3919L45.6992 29.2796L47.3202 31.2717Z" fill="white"/>
<path d="M27.8192 27.2444L23.2902 28.0192L21.0521 24.0063C20.8848 23.7073 20.629 23.4673 20.3199 23.3195C20.0109 23.1716 19.6636 23.1229 19.3258 23.1802L14.7967 23.955L12.5586 19.9422C12.4522 19.751 12.3093 19.5827 12.1379 19.4468C11.9665 19.311 11.77 19.2102 11.5596 19.1502C11.3493 19.0903 11.1292 19.0724 10.9119 19.0975C10.6946 19.1226 10.4844 19.1903 10.2933 19.2967C10.1022 19.403 9.93385 19.546 9.79798 19.7174C9.6621 19.8888 9.56132 20.0853 9.50138 20.2956C9.44144 20.506 9.42352 20.7261 9.44864 20.9434C9.47376 21.1606 9.54143 21.3709 9.64779 21.562L12.4572 26.5978C12.6245 26.8969 12.8803 27.1368 13.1894 27.2847C13.4984 27.4326 13.8457 27.4812 14.1835 27.4239L18.7126 26.6491L20.9507 30.662C21.118 30.961 21.3737 31.2009 21.6828 31.3488C21.9919 31.4967 22.3392 31.5453 22.677 31.488L27.206 30.7132L29.4852 34.7882C29.6823 35.1634 30.0153 35.449 30.4162 35.5865C30.8171 35.724 31.2554 35.703 31.6412 35.5277C32.0271 35.3525 32.3313 35.0363 32.4916 34.644C32.6518 34.2516 32.6559 33.8128 32.5031 33.4176L32.407 33.1453L29.5976 28.1095C29.4332 27.7936 29.1715 27.539 28.8513 27.3832C28.5311 27.2274 28.1692 27.1788 27.8192 27.2444V27.2444Z" fill="white"/>
<path d="M23.5141 9.34322L23.409 14.4696C23.3991 14.8676 23.5327 15.2559 23.7852 15.5637C24.0378 15.8715 24.3926 16.0783 24.7848 16.1463L28.4308 16.7735L28.3581 20.4727C28.3482 20.8707 28.4817 21.259 28.7343 21.5668C28.9868 21.8746 29.3416 22.0814 29.7339 22.1494L33.3629 22.7826L33.2901 26.4818C33.2868 26.7003 33.3265 26.9173 33.4071 27.1205C33.4876 27.3236 33.6074 27.5089 33.7595 27.6658C33.9117 27.8227 34.0933 27.948 34.2939 28.0347C34.4945 28.1214 34.7102 28.1677 34.9287 28.1711C35.1472 28.1744 35.3642 28.1346 35.5674 28.0541C35.7705 27.9736 35.9558 27.8538 36.1127 27.7016C36.2695 27.5495 36.3949 27.3679 36.4816 27.1673C36.5683 26.9667 36.6146 26.751 36.618 26.5325L36.723 21.4061C36.7329 21.0081 36.5994 20.6198 36.3468 20.312C36.0943 20.0042 35.7395 19.7974 35.3472 19.7294L31.7012 19.1022L31.774 15.403C31.7838 15.005 31.6503 14.6167 31.3978 14.3089C31.1452 14.0011 30.7904 13.7943 30.3981 13.7263L26.7521 13.0991L26.8249 9.39991C26.8294 9.18101 26.7906 8.96337 26.711 8.75943C26.6313 8.55549 26.5123 8.36924 26.3606 8.21131C26.209 8.05338 26.0277 7.92686 25.8272 7.83898C25.6266 7.75111 25.4107 7.70358 25.1918 7.69914C24.9729 7.69469 24.7553 7.73341 24.5514 7.81307C24.3474 7.89273 24.1612 8.01179 24.0032 8.16343C23.8453 8.31508 23.7188 8.49634 23.6309 8.69688C23.543 8.89742 23.4955 9.1133 23.4911 9.33221L23.5141 9.34322Z" fill="white"/>
<path d="M24.1461 37.5513L21.2822 39.9007L18.5063 37.4551C18.2107 37.192 17.8309 37.0431 17.4352 37.0353C17.0396 37.0275 16.6542 37.1614 16.3485 37.4127L13.4445 39.7571L10.6686 37.3115C10.3389 37.0168 9.90555 36.8651 9.46398 36.8899C9.02242 36.9147 8.60879 37.1139 8.31408 37.4436C8.01938 37.7734 7.86774 38.2067 7.89252 38.6483C7.9173 39.0898 8.11648 39.5034 8.44624 39.7982L12.3169 43.1778C12.6125 43.4409 12.9923 43.5898 13.388 43.5976C13.7836 43.6054 14.169 43.4716 14.4747 43.2203L17.3216 40.8768L20.0975 43.3224C20.3931 43.5856 20.773 43.7344 21.1686 43.7422C21.5643 43.75 21.9497 43.6162 22.2554 43.3649L25.1193 41.0154L27.9012 43.4781C28.0645 43.624 28.2549 43.7364 28.4616 43.8087C28.6683 43.881 28.8872 43.9119 29.1058 43.8997C29.5474 43.8749 29.961 43.6757 30.2557 43.3459C30.5504 43.0162 30.7021 42.5829 30.6773 42.1413C30.6525 41.6997 30.4533 41.2861 30.1236 40.9914L26.298 37.5767C26.0007 37.3176 25.621 37.1727 25.2267 37.1681C24.8324 37.1634 24.4494 37.2993 24.1461 37.5513V37.5513Z" fill="white"/>
<path d="M26.0782 50.2438C26.2048 50.4217 26.3652 50.5728 26.5502 50.6886C26.7353 50.8044 26.9414 50.8825 27.1567 50.9185C27.372 50.9545 27.5923 50.9477 27.805 50.8985C28.0176 50.8493 28.2185 50.7586 28.3961 50.6316L30.3971 49.1988C30.687 48.9893 30.9015 48.6919 31.0087 48.3507C31.1159 48.0095 31.11 47.6428 30.992 47.3053C30.9614 47.1511 30.9088 47.0021 30.8359 46.8628C30.7093 46.685 30.5489 46.5339 30.3638 46.4181C30.1788 46.3023 29.9727 46.2242 29.7574 46.1882C29.5421 46.1521 29.3218 46.1589 29.1091 46.2082C28.8964 46.2574 28.6956 46.3481 28.518 46.4751L26.517 47.9079C26.3326 48.0306 26.1746 48.189 26.0524 48.3737C25.9302 48.5584 25.8461 48.7657 25.8052 48.9834C25.7643 49.201 25.7674 49.4247 25.8143 49.6412C25.8612 49.8577 25.9509 50.0626 26.0782 50.2438V50.2438Z" fill="white"/>
<path d="M38.112 32.3959C37.997 32.073 37.7848 31.7936 37.5046 31.5961L36.5339 30.9053C36.3549 30.7788 36.1527 30.6887 35.9388 30.6404C35.725 30.592 35.5037 30.5862 35.2876 30.6233C35.0715 30.6604 34.8648 30.7398 34.6794 30.8568C34.494 30.9738 34.3334 31.1261 34.2069 31.3052C34.0803 31.4843 33.9903 31.6865 33.9419 31.9003C33.8935 32.1142 33.8877 32.3355 33.9249 32.5516C33.962 32.7676 34.0413 32.9743 34.1583 33.1597C34.2753 33.3452 34.4277 33.5057 34.6068 33.6323L35.5775 34.3231C35.8649 34.534 36.2127 34.6469 36.5692 34.6448C36.9258 34.6428 37.2722 34.5259 37.5572 34.3117C37.8422 34.0974 38.0507 33.797 38.1517 33.455C38.2527 33.1131 38.2409 32.7477 38.118 32.4129L38.112 32.3959Z" fill="white"/>
<path d="M32.3503 41.7177C32.7472 41.9072 33.203 41.9314 33.6177 41.7851C34.0325 41.6389 34.3722 41.334 34.5623 40.9374L34.9809 40.0628C35.0855 39.8651 35.1492 39.6483 35.168 39.4254C35.1868 39.2025 35.1603 38.9782 35.0902 38.7658C35.0201 38.5533 34.9078 38.3573 34.7601 38.1894C34.6123 38.0215 34.4321 37.8851 34.2304 37.7886C34.0286 37.692 33.8094 37.6373 33.5859 37.6276C33.3625 37.6178 33.1394 37.6534 32.93 37.7321C32.7206 37.8107 32.5293 37.9309 32.3675 38.0854C32.2057 38.2399 32.0768 38.4254 31.9886 38.631L31.5701 39.5056C31.3806 39.9025 31.3563 40.3583 31.5026 40.7731C31.6489 41.1878 31.9538 41.5275 32.3503 41.7177V41.7177Z" fill="white"/>
<path d="M42.134 18.8468L42.0379 18.5746C41.9773 18.3635 41.8757 18.1665 41.739 17.9948C41.6022 17.823 41.433 17.6798 41.2409 17.5735C41.0488 17.4671 40.8377 17.3996 40.6195 17.3749C40.4013 17.3501 40.1804 17.3686 39.9694 17.4292C39.7584 17.4898 39.5613 17.5914 39.3896 17.7282C39.2178 17.8649 39.0747 18.0342 38.9683 18.2262C38.8619 18.4183 38.7945 18.6295 38.7697 18.8476C38.7449 19.0658 38.7634 19.2867 38.824 19.4977L39.5909 23.5704C39.628 23.7859 39.7071 23.9921 39.8239 24.177C39.9407 24.362 40.0927 24.5221 40.2714 24.6483C40.45 24.7745 40.6518 24.8643 40.8651 24.9125C41.0784 24.9608 41.2992 24.9665 41.5148 24.9294C41.7303 24.8923 41.9365 24.8131 42.1214 24.6964C42.3064 24.5796 42.4665 24.4276 42.5927 24.2489C42.7189 24.0703 42.8087 23.8685 42.8569 23.6552C42.9052 23.4418 42.9109 23.2211 42.8738 23.0055L42.134 18.8468Z" fill="white"/>
</svg>
