<svg width="35" height="28" viewBox="0 0 35 28" fill="none" xmlns="http://www.w3.org/2000/svg">
<path d="M21.0278 13.6853C21.0278 9.36183 21.8229 5.57313 23.1427 2.86987C15.3846 7.32777 8.58144 7.61248 5.16809 7.81814C3.24883 7.93373 1.48157 9.18278 0.562693 11.1387C-0.186272 12.733 -0.181849 14.6124 0.541808 16.2181C1.45372 18.242 3.23128 19.5691 5.16802 19.5524C5.48869 19.5497 5.8726 19.5545 6.29959 19.5689C5.60813 22.6808 7.39055 25.9728 10.5963 27.362C11.576 27.7866 12.6089 28 13.633 28C14.431 28 15.2238 27.8704 15.9811 27.6089C17.7323 27.005 19.0861 25.7736 19.7929 24.1427C19.9574 23.7633 20.0689 23.366 20.1541 22.9628C21.1355 23.4162 22.1349 23.9268 23.1455 24.5063C21.8241 21.8026 21.0278 18.0121 21.0278 13.6853ZM18.4828 23.575C17.9371 24.8336 16.8836 25.7867 15.5154 26.2589C14.1247 26.7386 12.5788 26.6647 11.164 26.051C8.51132 24.9018 7.05958 22.1668 7.74625 19.6547C10.4721 19.8758 14.4095 20.5393 18.8208 22.3762C18.7606 22.7885 18.6489 23.1915 18.4828 23.575Z" fill="white"/>
<path d="M28.3646 0C26.0029 0 23.9709 3.21675 23.0249 7.85478C26.1786 7.92991 28.7224 10.5139 28.7224 13.6854C28.7224 16.8568 26.1785 19.4401 23.0248 19.5152C23.9707 24.1534 26.0028 27.3703 28.3646 27.3703C31.6279 27.3703 34.2732 21.2432 34.2732 13.6852C34.2732 6.12712 31.6279 0 28.3646 0Z" fill="white"/>
</svg>
