<?xml version="1.0" encoding="utf-8"?>
<!-- Generator: Adobe Illustrator 25.2.0, SVG Export Plug-In . SVG Version: 6.00 Build 0)  -->
<svg version="1.1" id="Layer_1" xmlns="http://www.w3.org/2000/svg" xmlns:xlink="http://www.w3.org/1999/xlink" x="0px" y="0px"
	 viewBox="0 0 96 95" style="enable-background:new 0 0 96 95;" xml:space="preserve">
<g>
	<path d="M17.9,65.7h5.3v2.6h-5.3V65.7z M42.2,76.7h5.3v-2.6h-5.2L42.2,76.7z M30.1,68.3h5.3v-2.6h-5.3V68.3z M30.1,76.7h5.3v-2.6
		h-5.3V76.7z M30.1,85.1h5.3v-2.6h-5.3V85.1z M42.2,85.1h5.2v-2.6h-5.2L42.2,85.1z M42.2,68.3h5.2v-2.6h-5.2L42.2,68.3z M82.5,7.8
		v73.4l-4.6,3.4l-5-3.7c-0.3-0.2-0.7-0.2-1,0l-5,3.7l-5-3.7c-0.3-0.2-0.7-0.2-1,0l-5,3.7L53.7,83V39.4l6.7-6.5l6.2,10.2
		c0.1,0.2,0.4,0.4,0.6,0.4c0,0,0.1,0,0.1,0c0.2,0,0.5-0.1,0.6-0.3l1.7-1.7c0.8-0.8,1.1-2,0.7-3.1l-4.2-11.1l2.6-2.5
		c0.7-0.7,1.4-2.5,2.2-5.4c0.2-0.8-0.3-1.6-1.1-1.8c-0.3-0.1-0.5-0.1-0.8,0c-2.9,0.8-4.7,1.6-5.4,2.3l-2.5,2.6l-11.3-4.1
		c-0.9-0.3-1.9-0.1-2.6,0.6l-1.9,1.9c-0.3,0.3-0.3,0.9,0,1.2c0.1,0.1,0.1,0.1,0.2,0.1l10.1,6L49,35.2H29.2V7.8l4.6-3.4l5,3.7
		c0.3,0.2,0.7,0.2,1,0l5-3.7l5,3.7c0.3,0.2,0.7,0.2,1,0l5-3.7l5,3.7c0.3,0.2,0.7,0.2,1,0l5-3.7l5,3.7c0.3,0.2,0.7,0.2,1,0l5-3.7
		L82.5,7.8z M69.8,67.2c0-0.5-0.4-0.9-0.9-0.9c0,0,0,0,0,0H56.5c-0.5,0-0.9,0.4-0.9,0.9c0,0.5,0.4,0.9,0.9,0.9H69
		C69.4,68.1,69.8,67.7,69.8,67.2L69.8,67.2z M69.8,61.6c0-0.5-0.4-0.9-0.9-0.9l0,0H56.5c-0.5,0-0.9,0.4-0.9,0.9
		c0,0.5,0.4,0.9,0.9,0.9H69C69.4,62.5,69.8,62.1,69.8,61.6L69.8,61.6L69.8,61.6z M69.8,56c0-0.5-0.4-0.9-0.9-0.9l0,0H56.5
		c-0.5,0-0.9,0.4-0.9,0.9c0,0.5,0.4,0.9,0.9,0.9H69C69.4,56.8,69.8,56.5,69.8,56L69.8,56L69.8,56z M69.8,50.4c0-0.5-0.4-0.9-0.9-0.9
		l0,0H56.5c-0.5,0-0.9,0.4-0.9,0.9c0,0.5,0.4,0.9,0.9,0.9H69C69.4,51.2,69.8,50.8,69.8,50.4C69.8,50.4,69.8,50.4,69.8,50.4
		L69.8,50.4z M69.2,19.4c-2.6,0.8-3.9,1.4-4.2,1.7L51.3,35.2c1,0.2,1.9,0.9,2.3,1.9l13.9-13.5C67.8,23.3,68.4,22,69.2,19.4
		L69.2,19.4z M52,37.9v51.7c-0.1,0.6-0.6,1.1-1.2,1H14.7c-0.6,0-1.1-0.4-1.2-1V37.9c0.1-0.6,0.6-1.1,1.2-1h36.1
		C51.4,36.9,51.9,37.3,52,37.9z M17.9,60.1h29.6V40.9H17.9V60.1z M24.9,81.7c0-0.5-0.4-0.9-0.9-0.9l0,0h-7c-0.5,0-0.9,0.4-0.9,0.9
		l0,0V86c0,0.5,0.4,0.9,0.9,0.9l0,0h7c0.5,0,0.9-0.4,0.9-0.9l0,0L24.9,81.7z M24.9,73.3c0-0.5-0.4-0.9-0.9-0.9c0,0,0,0,0,0h-7
		c-0.5,0-0.9,0.4-0.9,0.9c0,0,0,0,0,0v4.3c0,0.5,0.4,0.9,0.9,0.9l0,0h7c0.5,0,0.9-0.4,0.9-0.9l0,0L24.9,73.3z M24.9,64.8
		c0-0.5-0.4-0.9-0.9-0.9l0,0h-7c-0.5,0-0.9,0.4-0.9,0.9l0,0v4.3c0,0.5,0.4,0.9,0.9,0.9l0,0h7c0.5,0,0.9-0.4,0.9-0.9l0,0L24.9,64.8z
		 M37.1,81.7c0-0.5-0.4-0.9-0.9-0.9l0,0h-7c-0.5,0-0.9,0.4-0.9,0.9l0,0V86c0,0.5,0.4,0.9,0.9,0.9h0h7c0.5,0,0.9-0.4,0.9-0.9l0,0
		V81.7z M37.1,73.3c0-0.5-0.4-0.9-0.9-0.9c0,0,0,0,0,0h-7c-0.5,0-0.9,0.4-0.9,0.9c0,0,0,0,0,0v4.3c0,0.5,0.4,0.9,0.9,0.9h0h7
		c0.5,0,0.9-0.4,0.9-0.9l0,0V73.3z M37.1,64.8c0-0.5-0.4-0.9-0.9-0.9l0,0h-7c-0.5,0-0.9,0.4-0.9,0.9l0,0v4.3c0,0.5,0.4,0.9,0.9,0.9
		h0h7c0.5,0,0.9-0.4,0.9-0.9l0,0V64.8z M49.2,81.7c0-0.5-0.4-0.9-0.9-0.9l0,0h-7c-0.5,0-0.9,0.4-0.9,0.9l0,0V86
		c0,0.5,0.4,0.9,0.9,0.9l0,0h7c0.5,0,0.9-0.4,0.9-0.9l0,0V81.7z M49.2,73.3c0-0.5-0.4-0.9-0.9-0.9c0,0,0,0,0,0h-7
		c-0.5,0-0.9,0.4-0.9,0.9c0,0,0,0,0,0v4.3c0,0.5,0.4,0.9,0.9,0.9l0,0h7c0.5,0,0.9-0.4,0.9-0.9l0,0V73.3z M49.2,64.8
		c0-0.5-0.4-0.9-0.9-0.9l0,0h-7c-0.5,0-0.9,0.4-0.9,0.9l0,0v4.3c0,0.5,0.4,0.9,0.9,0.9l0,0h7c0.5,0,0.9-0.4,0.9-0.9l0,0V64.8z
		 M48.5,20.2l-1.1,1.1l9.5,5.6l3-3.1L49.2,20C49,19.9,48.7,20,48.5,20.2z M17.9,85.1h5.3v-2.6h-5.3V85.1z M17.9,76.7h5.3v-2.6h-5.3
		V76.7z M68.4,40.4c0.3-0.3,0.4-0.8,0.3-1.3l-3.9-10.4l-3.1,3l5.8,9.6L68.4,40.4z M38.3,49.6c-0.6,0-1.2-0.4-1.4-1
		c-0.1-0.4,0-0.9,0.3-1.3c0.4-0.4,1-0.6,1.6-0.6c0.6,0,1.2,0.3,1.7,0.8c0.3,0.4,0.9,0.4,1.2,0.1c0.4-0.3,0.4-0.9,0.1-1.2
		c-0.6-0.7-1.4-1.2-2.3-1.4V44c0-0.5-0.4-0.9-0.9-0.9c-0.5,0-0.9,0.4-0.9,0.9v1.2c-0.7,0.2-1.3,0.5-1.8,1c-0.8,0.8-1,2-0.7,3
		c0.5,1.2,1.6,2,2.9,2.1c1.4,0.2,2.3,0.8,2.5,1.6c0.1,0.7-0.2,1.3-0.8,1.6C39,55,38.2,55,37.4,54.7c-0.4-0.2-0.7-0.5-0.9-0.9
		c-0.1-0.5-0.6-0.7-1.1-0.6c-0.5,0.1-0.7,0.6-0.6,1.1c0.3,0.9,1,1.7,1.9,2c0.3,0.1,0.6,0.2,0.9,0.3v1.2c0,0.5,0.4,0.9,0.9,0.9
		c0.5,0,0.9-0.4,0.9-0.9v-1.2c0.4-0.1,0.7-0.2,1.1-0.4c1.3-0.7,1.9-2,1.7-3.4C41.9,51.1,40.4,49.9,38.3,49.6z M27.4,49.6
		c-0.6,0-1.2-0.4-1.4-1c-0.1-0.4,0-0.9,0.3-1.3c0.4-0.4,1-0.6,1.6-0.6c0.6,0,1.2,0.3,1.6,0.8c0.3,0.4,0.9,0.4,1.2,0.1
		c0.4-0.3,0.4-0.9,0.1-1.2c-0.6-0.7-1.4-1.2-2.3-1.4V44c0-0.5-0.4-0.9-0.8-0.9s-0.9,0.4-0.9,0.8c0,0,0,0,0,0.1v1.2
		c-0.7,0.2-1.3,0.5-1.8,1c-0.8,0.8-1,2-0.7,3c0.5,1.2,1.6,2,2.9,2.1c1.4,0.2,2.3,0.8,2.5,1.6c0.1,0.7-0.2,1.3-0.8,1.6
		c-0.7,0.4-1.5,0.4-2.2,0.1c-0.4-0.2-0.7-0.5-0.9-0.9c-0.1-0.5-0.6-0.7-1.1-0.6c-0.5,0.1-0.7,0.6-0.6,1.1c0.3,0.9,1,1.7,1.9,2
		c0.3,0.1,0.6,0.2,0.9,0.3v1.2c0,0.5,0.4,0.9,0.8,0.9s0.9-0.4,0.9-0.8c0,0,0,0,0-0.1v-1.2c0.4-0.1,0.7-0.2,1.1-0.4
		c1.3-0.7,1.9-2,1.7-3.4C31,51.1,29.6,49.9,27.4,49.6z"/>
</g>
</svg>
