<?xml version="1.0" encoding="utf-8"?>
<!-- Generator: Adobe Illustrator 25.2.0, SVG Export Plug-In . SVG Version: 6.00 Build 0)  -->
<svg version="1.1" id="Layer_1" xmlns="http://www.w3.org/2000/svg" xmlns:xlink="http://www.w3.org/1999/xlink" x="0px" y="0px"
	 viewBox="0 0 51 51" style="enable-background:new 0 0 51 51;" xml:space="preserve">
<style type="text/css">
	.st0{fill:#231F20;}
</style>
<path class="st0" d="M21.2,17v12.8l10,6.2l1.7-2.5l-8.5-5.1V17H21.2z"/>
<path class="st0" d="M38.1,25.5c0.1,0.7,0.2,1.4,0.2,2.1c0,8.3-6.6,14.9-14.9,14.9S8.5,35.9,8.5,27.6s6.6-14.9,14.9-14.9
	c1.5,0,2.9,0.2,4.2,0.6V9c-1.4-0.3-2.8-0.5-4.2-0.5C12.8,8.5,4.2,17,4.2,27.6s8.5,19.1,19.1,19.1s19.1-8.5,19.1-19.1
	c0-0.7,0-1.4-0.1-2.1H38.1z"/>
<path class="st0" d="M42.5,10.6V4.2h-4.2v6.4h-6.4v4.2h6.4v6.4h4.2v-6.4h6.4v-4.2H42.5z"/>
</svg>
