<svg width="16" height="17" viewBox="0 0 16 17" fill="none" xmlns="http://www.w3.org/2000/svg">
<path d="M12.7996 8.50903H9.59961V9.70903H12.7996V8.50903Z" fill="#808080"/>
<path d="M12.7996 10.9089H9.59961V12.1089H12.7996V10.9089Z" fill="#808080"/>
<path d="M14.4 4.50903H10.4V2.10903C10.4 1.22903 9.68 0.509033 8.8 0.509033H7.2C6.32 0.509033 5.6 1.22903 5.6 2.10903V4.50903H1.6C0.72 4.50903 0 5.22903 0 6.10903V14.909C0 15.789 0.72 16.509 1.6 16.509H14.4C15.28 16.509 16 15.789 16 14.909V6.10903C16 5.22903 15.28 4.50903 14.4 4.50903ZM7.2 4.50903V2.10903H8.8V4.50903V6.10903H7.2V4.50903ZM14.4 14.909H1.6V6.10903H5.6C5.6 6.98903 6.32 7.70903 7.2 7.70903H8.8C9.68 7.70903 10.4 6.98903 10.4 6.10903H14.4V14.909Z" fill="#808080"/>
<path d="M5.60039 10.909C6.26313 10.909 6.80039 10.3718 6.80039 9.70903C6.80039 9.04629 6.26313 8.50903 5.60039 8.50903C4.93765 8.50903 4.40039 9.04629 4.40039 9.70903C4.40039 10.3718 4.93765 10.909 5.60039 10.909Z" fill="#808080"/>
<path d="M7.2642 11.853C6.7522 11.629 6.1922 11.509 5.6002 11.509C5.0082 11.509 4.4482 11.629 3.9362 11.853C3.4882 12.045 3.2002 12.477 3.2002 12.965V13.309H8.0002V12.965C8.0002 12.477 7.7122 12.045 7.2642 11.853Z" fill="#808080"/>
</svg>
