<?xml version="1.0" encoding="utf-8"?>
<!-- Generator: Adobe Illustrator 25.2.0, SVG Export Plug-In . SVG Version: 6.00 Build 0)  -->
<svg version="1.1" id="Layer_1" xmlns="http://www.w3.org/2000/svg" xmlns:xlink="http://www.w3.org/1999/xlink" x="0px" y="0px"
	 viewBox="0 0 51 51" style="enable-background:new 0 0 51 51;" xml:space="preserve">
<style type="text/css">
	.st0{fill:#231F20;}
</style>
<path class="st0" d="M38.2,25.5h-8.5v3.2h8.5V25.5z"/>
<path class="st0" d="M38.2,31.9h-8.5v3.2h8.5V31.9z"/>
<path class="st0" d="M42.5,14.9H31.9V8.5c0-2.3-1.9-4.2-4.2-4.2h-4.2c-2.3,0-4.2,1.9-4.2,4.2v6.4H8.5c-2.3,0-4.2,1.9-4.2,4.2v23.4
	c0,2.3,1.9,4.2,4.2,4.2h34c2.3,0,4.2-1.9,4.2-4.2V19.1C46.8,16.8,44.8,14.9,42.5,14.9z M23.4,14.9V8.5h4.2v6.4v4.2h-4.2V14.9z
	 M42.5,42.5h-34V19.1h10.6c0,2.3,1.9,4.2,4.2,4.2h4.2c2.3,0,4.2-1.9,4.2-4.2h10.6V42.5z"/>
<path class="st0" d="M19.1,31.9c1.8,0,3.2-1.4,3.2-3.2s-1.4-3.2-3.2-3.2s-3.2,1.4-3.2,3.2S17.4,31.9,19.1,31.9z"/>
<path class="st0" d="M23.5,34.4c-1.4-0.6-2.8-0.9-4.4-0.9s-3.1,0.3-4.4,0.9c-1.2,0.5-2,1.7-2,3v0.9h12.8v-0.9
	C25.5,36,24.7,34.9,23.5,34.4z"/>
</svg>
