<svg width="12" height="16" viewBox="0 0 12 16" fill="none" xmlns="http://www.w3.org/2000/svg">
<path d="M5.6 16C5.6 16 0 8.696 0 5.6C-1.09584e-08 4.8646 0.144848 4.1364 0.426275 3.45697C0.707701 2.77755 1.12019 2.16021 1.6402 1.6402C2.16021 1.12019 2.77755 0.707701 3.45697 0.426275C4.1364 0.144848 4.8646 0 5.6 0C6.3354 0 7.0636 0.144848 7.74303 0.426275C8.42245 0.707701 9.03979 1.12019 9.5598 1.6402C10.0798 2.16021 10.4923 2.77755 10.7737 3.45697C11.0552 4.1364 11.2 4.8646 11.2 5.6C11.2 8.696 5.6 16 5.6 16ZM5.6 7.2C6.02435 7.2 6.43131 7.03143 6.73137 6.73137C7.03143 6.43131 7.2 6.02435 7.2 5.6C7.2 5.17565 7.03143 4.76869 6.73137 4.46863C6.43131 4.16857 6.02435 4 5.6 4C5.17565 4 4.76869 4.16857 4.46863 4.46863C4.16857 4.76869 4 5.17565 4 5.6C4 6.02435 4.16857 6.43131 4.46863 6.73137C4.76869 7.03143 5.17565 7.2 5.6 7.2Z" fill="black"/>
</svg>
