<svg width="14" height="17" viewBox="0 0 14 17" fill="none" xmlns="http://www.w3.org/2000/svg">
<path d="M9.33333 0H4.66667V1.61905H9.33333V0ZM6.22222 10.5238H7.77778V5.66667H6.22222V10.5238ZM12.4678 5.17286L13.5722 4.02333C13.2378 3.61048 12.8722 3.2219 12.4756 2.8819L11.3711 4.03143C10.1656 3.02762 8.64889 2.42857 7 2.42857C3.13444 2.42857 0 5.69095 0 9.71429C0 13.7376 3.12667 17 7 17C10.8733 17 14 13.7376 14 9.71429C14 7.9981 13.4244 6.41952 12.4678 5.17286ZM7 15.381C3.99 15.381 1.55556 12.8471 1.55556 9.71429C1.55556 6.58143 3.99 4.04762 7 4.04762C10.01 4.04762 12.4444 6.58143 12.4444 9.71429C12.4444 12.8471 10.01 15.381 7 15.381Z" fill="white"/>
</svg>
