<svg width="13" height="16" viewBox="0 0 13 16" fill="none" xmlns="http://www.w3.org/2000/svg">
<path d="M6.5 4.36364C7.30167 4.36364 7.94444 3.70909 7.94444 2.90909C7.94444 2.63273 7.87222 2.37818 7.735 2.16L6.5 0L5.265 2.16C5.12778 2.37818 5.05556 2.63273 5.05556 2.90909C5.05556 3.70909 5.70556 4.36364 6.5 4.36364ZM10.8333 6.54545H7.22222V5.09091H5.77778V6.54545H2.16667C0.967778 6.54545 0 7.52 0 8.72727V15.2727C0 15.6727 0.325 16 0.722222 16H12.2778C12.675 16 13 15.6727 13 15.2727V8.72727C13 7.52 12.0322 6.54545 10.8333 6.54545ZM11.5556 14.5455H1.44444V12.3636C2.09444 12.3564 2.71556 12.0945 3.17778 11.6291L3.965 10.8509L4.73778 11.6291C5.68389 12.5818 7.33056 12.5745 8.26944 11.6291L9.04944 10.8509L9.82222 11.6291C10.2844 12.0945 10.9056 12.3564 11.5556 12.3636V14.5455ZM11.5556 11.2727C11.1872 11.2655 10.8406 11.1273 10.5806 10.8582L9.04222 9.30909L7.49667 10.8582C6.96222 11.3964 6.03056 11.3964 5.49611 10.8582L3.95778 9.30909L2.41222 10.8582C2.15944 11.12 1.81278 11.2655 1.44444 11.2727V8.72727C1.44444 8.32727 1.76944 8 2.16667 8H10.8333C11.2306 8 11.5556 8.32727 11.5556 8.72727V11.2727Z" fill="#5F5F5F"/>
</svg>
