<?xml version="1.0" encoding="utf-8"?>
<!-- Generator: Adobe Illustrator 25.2.0, SVG Export Plug-In . SVG Version: 6.00 Build 0)  -->
<svg version="1.1" id="Layer_1" xmlns="http://www.w3.org/2000/svg" xmlns:xlink="http://www.w3.org/1999/xlink" x="0px" y="0px"
	 viewBox="0 0 51 51" style="enable-background:new 0 0 51 51;" xml:space="preserve">
<style type="text/css">
	.st0{fill:#231F20;}
</style>
<path class="st0" d="M13.2,29.7l2.6,4.4c0.2,0.3,0.5,0.4,0.8,0.3l3.2-1.3c0.7,0.5,1.4,0.9,2.1,1.3l0.5,3.4c0.1,0.3,0.3,0.5,0.6,0.5
	H28c0.3,0,0.6-0.2,0.6-0.6l0.5-3.4c0.8-0.3,1.5-0.7,2.1-1.3l3.2,1.3c0.3,0.1,0.6,0,0.8-0.3l2.6-4.4c0.2-0.3,0.1-0.6-0.1-0.8L35,26.7
	c0.1-0.4,0.1-0.8,0.1-1.2c0-0.4,0-0.8-0.1-1.3l2.7-2.1c0.2-0.2,0.3-0.6,0.1-0.8l-2.6-4.4c-0.2-0.3-0.5-0.4-0.8-0.3l-3.2,1.3
	c-0.7-0.5-1.4-0.9-2.1-1.3l-0.5-3.4c-0.1-0.3-0.3-0.5-0.6-0.5H23c-0.3,0-0.6,0.2-0.6,0.6l-0.5,3.4c-0.8,0.3-1.5,0.7-2.1,1.2
	l-3.2-1.3c-0.3-0.1-0.6,0-0.8,0.3l-2.6,4.4c-0.2,0.3-0.1,0.6,0.1,0.8l2.7,2.1c-0.1,0.4-0.1,0.8-0.1,1.3s0,0.8,0.1,1.3l-2.7,2.1
	C13.1,29.1,13,29.4,13.2,29.7z M25.5,21.9c2,0,3.6,1.6,3.6,3.6s-1.6,3.6-3.6,3.6s-3.6-1.6-3.6-3.6S23.5,21.9,25.5,21.9z M40.4,6.4
	H10.6c-2.4,0-4.2,1.9-4.2,4.2v29.8c0,2.3,1.9,4.2,4.2,4.2h29.8c2.4,0,4.2-1.9,4.2-4.2V10.6C44.6,8.3,42.7,6.4,40.4,6.4z M40.4,40.4
	H10.6V10.6h29.8V40.4z"/>
</svg>
