<?xml version="1.0" encoding="utf-8"?>
<!-- Generator: Adobe Illustrator 25.2.0, SVG Export Plug-In . SVG Version: 6.00 Build 0)  -->
<svg version="1.1" id="Layer_1" xmlns="http://www.w3.org/2000/svg" xmlns:xlink="http://www.w3.org/1999/xlink" x="0px" y="0px"
	 viewBox="0 0 51 51" style="enable-background:new 0 0 51 51;" xml:space="preserve">
<style type="text/css">
	.st0{fill:#231F20;}
</style>
<path class="st0" d="M14.9,31.9h14.9v4.2H14.9V31.9z M14.9,23.4h21.2v4.2H14.9V23.4z M14.9,14.9h21.2v4.2H14.9V14.9z M40.4,6.4h-8.9
	c-0.9-2.5-3.2-4.2-6-4.2s-5.1,1.8-6,4.2h-8.9c-0.3,0-0.6,0-0.9,0.1C8.9,6.6,8.2,7.1,7.6,7.6C7.2,8,6.9,8.5,6.7,9
	c-0.2,0.5-0.3,1-0.3,1.6v29.8c0,0.6,0.1,1.1,0.3,1.7c0.2,0.5,0.5,1,0.9,1.4c0.6,0.6,1.3,1,2.1,1.2c0.3,0,0.6,0.1,0.9,0.1h29.8
	c2.3,0,4.2-1.9,4.2-4.2V10.6C44.6,8.3,42.7,6.4,40.4,6.4z M25.5,5.8c0.9,0,1.6,0.7,1.6,1.6S26.4,9,25.5,9s-1.6-0.7-1.6-1.6
	S24.6,5.8,25.5,5.8z M40.4,40.4H10.6V10.6h29.8V40.4z"/>
</svg>
