<svg width="13" height="8" viewBox="0 0 13 8" fill="none" xmlns="http://www.w3.org/2000/svg">
<path d="M12.3361 3.44183H1.90562L4.39448 0.952812C4.61252 0.734901 4.61252 0.381408 4.39448 0.16353C4.17644 -0.0545099 3.82295 -0.0545099 3.60523 0.16353L0.16353 3.6053C-0.0545099 3.82321 -0.0545099 4.17673 0.16353 4.39458L3.60523 7.8365C3.71422 7.94556 3.85705 8 3.99986 8C4.14266 8 4.28549 7.94556 4.39448 7.8365C4.61252 7.61859 4.61252 7.2651 4.39448 7.04725L1.90562 4.55811H12.3361C12.6443 4.55811 12.8943 4.30819 12.8943 3.99995C12.8943 3.69172 12.6443 3.44183 12.3361 3.44183Z" fill="white"/>
</svg>
