<svg width="17" height="16" viewBox="0 0 17 16" fill="none" xmlns="http://www.w3.org/2000/svg">
<path d="M15.8474 11.0044C14.7014 11.0044 13.5928 10.8267 12.5586 10.5067C12.2326 10.4 11.8692 10.48 11.6177 10.72L10.155 12.4711C7.51842 11.2711 5.04954 9.00444 3.73592 6.4L5.55264 4.92444C5.80418 4.67556 5.87871 4.32889 5.77623 4.01778C5.43152 3.03111 5.25451 1.97333 5.25451 0.88C5.25451 0.4 4.83526 0 4.33217 0H1.10866C0.605573 0 0 0.213333 0 0.88C0 9.13778 7.20166 16 15.8474 16C16.5088 16 16.7697 15.44 16.7697 14.9511V11.8844C16.7697 11.4044 16.3505 11.0044 15.8474 11.0044Z" fill="black"/>
</svg>
