<?xml version="1.0" encoding="utf-8"?>
<!-- Generator: Adobe Illustrator 25.2.0, SVG Export Plug-In . SVG Version: 6.00 Build 0)  -->
<svg version="1.1" id="Layer_1" xmlns="http://www.w3.org/2000/svg" xmlns:xlink="http://www.w3.org/1999/xlink" x="0px" y="0px"
	 viewBox="0 0 44 43" style="enable-background:new 0 0 44 43;" xml:space="preserve">
<style type="text/css">
	.st0{fill:#231F20;}
</style>
<path class="st0" d="M21.8,22.9H1.6c0,0.1,0,0.2,0,0.2V42c0,0.5,0.5,1,1,1h19.2V22.9z M12,27.5c1.1,0,2,0.9,2,2c0,1.1-0.9,2-2,2
	c-1.1,0-2-0.9-2-2C10,28.4,10.9,27.5,12,27.5z M15.6,37.2H8.4c-0.2,0-0.3-0.1-0.3-0.2v-0.8c0-2.1,1.8-3.9,3.9-3.9
	c2.1,0,3.9,1.7,3.9,3.9V37C16,37.1,15.8,37.2,15.6,37.2z"/>
<path class="st0" d="M23,22.9V43h19.3c0.5,0,1-0.5,1-1v-19H23z M32.8,27.5c1.1,0,2,0.9,2,2c0,1.1-0.9,2-2,2c-1.1,0-2-0.9-2-2
	C30.8,28.4,31.7,27.5,32.8,27.5z M36.6,37c0,0.2-0.1,0.4-0.2,0.4h-7.2C29,37.4,29,37.2,29,37v-0.8c0-2.1,1.7-3.9,3.8-3.9
	c2.1,0,3.8,1.7,3.8,3.9V37z"/>
<path class="st0" d="M23,21.7h20.3V2.5c0-0.5-0.5-0.9-1-0.9H23.3c-0.1,0-0.2,0-0.4,0.1V21.7z M32.8,7c1.1,0,2,0.9,2,2
	c0,1.1-0.9,2-2,2c-1.1,0-2-0.9-2-2C30.8,7.9,31.7,7,32.8,7z M29,15.7c0-2.1,1.7-3.9,3.8-3.9c2.1,0,3.8,1.7,3.8,3.9v0.8
	c0,0.2-0.1,0.2-0.2,0.2h-7.2c-0.2,0-0.2,0-0.2-0.2V15.7z"/>
<path class="st0" d="M10.9,3.2c0,0.3-0.2,0.6-0.6,0.6c-0.3,0-0.6-0.2-0.6-0.6v-1H2.2v7.6h1.2C3.7,9.8,4,10,4,10.3
	c0,0.3-0.2,0.6-0.6,0.6H2.2v7.6h7.6v-1.1c0-0.3,0.2-0.6,0.6-0.6c0.3,0,0.6,0.2,0.6,0.6v1.1h7.6v-7.6h-1.1c-0.3,0-0.6-0.2-0.6-0.6
	c0-0.3,0.2-0.6,0.6-0.6h1.1V2.2h-7.6L10.9,3.2L10.9,3.2z M14,13.7v0.7c0,0.1-0.1,0.3-0.3,0.3H7.1c-0.1,0-0.3-0.1-0.3-0.3v-0.7
	c0-2,1.6-3.6,3.6-3.6C12.4,10.1,14,11.8,14,13.7z M12.3,7.5c0,1-0.8,1.9-1.9,1.9c-1,0-1.9-0.8-1.9-1.9c0-1,0.8-1.9,1.9-1.9
	C11.4,5.7,12.3,6.5,12.3,7.5z"/>
<path class="st0" d="M20.8,19.7V0.9c0-0.5-0.4-0.9-0.9-0.9H0.9C0.4,0,0,0.4,0,0.9v18.8c0,0.5,0.4,0.9,0.9,0.9h18.9
	C20.4,20.7,20.8,20.2,20.8,19.7z M19.7,18.6c0,0.5-0.4,1-1,1H2.1c-0.5,0-1-0.4-1-1V2.1c0-0.5,0.4-1,1-1h16.7c0.5,0,1,0.4,1,1V18.6z"
	/>
</svg>
