<svg width="14" height="14" viewBox="0 0 14 14" fill="none" xmlns="http://www.w3.org/2000/svg">
<path d="M13.4177 1.66306H11.7718V0.582325C11.7718 0.260688 11.5111 0 11.1894 0C10.8678 0 10.6071 0.260688 10.6071 0.582325V1.66306H3.39288V0.582325C3.39288 0.260688 3.1322 0 2.81056 0C2.48892 0 2.22823 0.260688 2.22823 0.582325V1.66306H0.582325C0.260688 1.66306 0 1.92374 0 2.24538V12.8442C0 13.1659 0.260688 13.4265 0.582325 13.4265H13.4177C13.7393 13.4265 14 13.1659 14 12.8442V2.24538C14 1.92374 13.7393 1.66306 13.4177 1.66306ZM12.8354 2.82771V4.12157H1.16465V2.82771H12.8354ZM1.16465 12.2618V5.28622H12.8354V12.2619H1.16465V12.2618Z" fill="#5F5F5F"/>
<path d="M9.41645 6.81847C9.2149 6.56787 8.84829 6.52808 8.59776 6.72963L6.99999 8.01463L5.40229 6.72963C5.15156 6.52808 4.78509 6.56794 4.5836 6.81847C4.38205 7.06912 4.42185 7.43567 4.67244 7.63722L6.07086 8.76188L4.67244 9.88654C4.42185 10.0881 4.38205 10.4546 4.5836 10.7053C4.69864 10.8483 4.86745 10.9226 5.03775 10.9226C5.1658 10.9226 5.29475 10.8806 5.40229 10.7941L6.99999 9.5092L8.5977 10.7941C8.7053 10.8806 8.83419 10.9226 8.96223 10.9226C9.13253 10.9226 9.30134 10.8483 9.41638 10.7053C9.61793 10.4546 9.57814 10.0881 9.32755 9.88654L7.92912 8.76188L9.32755 7.63722C9.5782 7.43573 9.618 7.06919 9.41645 6.81847Z" fill="#5F5F5F"/>
</svg>
