<svg width="3" height="10" viewBox="0 0 3 10" fill="none" xmlns="http://www.w3.org/2000/svg">
<path d="M6.10352e-05 1.20704C6.10352e-05 1.87253 0.541475 2.41394 1.20696 2.41394C1.87244 2.41394 2.41385 1.87253 2.41385 1.20704C2.41385 0.541561 1.87244 0.000146814 1.20696 0.000146814C0.541475 0.000146814 6.10352e-05 0.541561 6.10352e-05 1.20704Z" fill="#808080"/>
<path d="M0 8.7931C0 9.45859 0.541414 10 1.2069 10C1.87238 10 2.41379 9.45859 2.41379 8.7931C2.41379 8.12762 1.87238 7.58621 1.2069 7.58621C0.541414 7.58621 0 8.12762 0 8.7931Z" fill="#808080"/>
<path d="M6.10352e-05 4.99977C6.10352e-05 5.66525 0.541475 6.20667 1.20696 6.20667C1.87244 6.20667 2.41385 5.66525 2.41385 4.99977C2.41385 4.33429 1.87244 3.79287 1.20696 3.79287C0.541475 3.79287 6.10352e-05 4.33429 6.10352e-05 4.99977Z" fill="#808080"/>
</svg>
