<?xml version="1.0" encoding="utf-8"?>
<!-- Generator: Adobe Illustrator 25.2.0, SVG Export Plug-In . SVG Version: 6.00 Build 0)  -->
<svg version="1.1" id="Layer_1" xmlns="http://www.w3.org/2000/svg" xmlns:xlink="http://www.w3.org/1999/xlink" x="0px" y="0px"
	 viewBox="0 0 51 51" style="enable-background:new 0 0 51 51;" xml:space="preserve">
<style type="text/css">
	.st0{fill:#231F20;}
</style>
<path class="st0" d="M8.5,38.2v-1.4c0-0.7,0.3-1.4,0.9-1.7c3.6-2.1,7.7-3.3,11.9-3.3c0.1,0,0.1,0,0.2,0c0.2-1.5,0.6-2.9,1.3-4.2
	c-0.5,0-0.9-0.1-1.4-0.1c-5.1,0-9.9,1.4-14,3.9c-1.9,1.1-3,3.2-3,5.4v5.6h19.7c-0.9-1.3-1.6-2.7-2.1-4.2H8.5z"/>
<path class="st0" d="M21.2,25.5c4.7,0,8.5-3.8,8.5-8.5s-3.8-8.5-8.5-8.5c-4.7,0-8.5,3.8-8.5,8.5S16.6,25.5,21.2,25.5z M21.2,12.8
	c2.3,0,4.2,1.9,4.2,4.2s-1.9,4.2-4.2,4.2S17,19.3,17,17S18.9,12.8,21.2,12.8z"/>
<path class="st0" d="M44.1,34c0-0.5-0.1-0.9-0.1-1.3l2.4-2.1l-2.1-3.7l-3.1,1c-0.7-0.6-1.4-1-2.3-1.3l-0.6-3.2H34l-0.6,3.2
	c-0.8,0.3-1.6,0.8-2.3,1.3l-3.1-1l-2.1,3.7l2.4,2.1c-0.1,0.4-0.1,0.9-0.1,1.3s0.1,0.9,0.1,1.3l-2.4,2.1l2.1,3.7l3.1-1
	c0.7,0.6,1.4,1,2.3,1.3l0.6,3.2h4.2l0.6-3.2c0.8-0.3,1.6-0.8,2.3-1.3l3.1,1l2.1-3.7L44,35.3C44,34.9,44.1,34.5,44.1,34z M36.1,38.2
	c-2.3,0-4.2-1.9-4.2-4.2s1.9-4.2,4.2-4.2s4.2,1.9,4.2,4.2S38.5,38.2,36.1,38.2z"/>
</svg>
