<svg width="62" height="80" viewBox="0 0 62 80" fill="none" xmlns="http://www.w3.org/2000/svg">
<path d="M43.55 0H2.09C0.935714 0 0 0.935714 0 2.75143V78.5714C0 79.0643 0.935714 80 2.09 80H59.3386C60.4929 80 61.4286 79.0643 61.4286 78.5714V18.54C61.4286 17.5457 61.2957 17.2257 61.0614 16.99L44.4386 0.367143C44.2029 0.132857 43.8829 0 43.55 0Z" fill="#E9E9E0"/>
<path d="M44.2858 0.21582V17.143H61.2129L44.2858 0.21582Z" fill="#D9D7CA"/>
<path d="M18.5914 47.6068C18.0943 47.6068 17.6171 47.4453 17.21 47.1411C15.7229 46.0253 15.5229 44.7839 15.6171 43.9382C15.8771 41.6125 18.7529 39.1782 24.1671 36.6982C26.3157 31.9896 28.36 26.1882 29.5786 21.3411C28.1529 18.2382 26.7671 14.2125 27.7771 11.8511C28.1314 11.0239 28.5729 10.3896 29.3971 10.1153C29.7229 10.0068 30.5457 9.86963 30.8486 9.86963C31.5686 9.86963 32.2014 10.7968 32.65 11.3682C33.0714 11.9053 34.0271 13.0439 32.1171 21.0853C34.0429 25.0625 36.7714 29.1139 39.3857 31.8882C41.2586 31.5496 42.87 31.3768 44.1829 31.3768C46.42 31.3768 47.7757 31.8982 48.3286 32.9725C48.7857 33.8611 48.5986 34.8996 47.7714 36.0582C46.9757 37.1711 45.8786 37.7596 44.6 37.7596C42.8629 37.7596 40.84 36.6625 38.5843 34.4953C34.5314 35.3425 29.7986 36.8539 25.9729 38.5268C24.7786 41.0611 23.6343 43.1025 22.5686 44.5996C21.1043 46.6496 19.8414 47.6068 18.5914 47.6068ZM22.3943 40.2839C19.3414 41.9996 18.0971 43.4096 18.0071 44.2039C17.9929 44.3353 17.9543 44.6811 18.6229 45.1925C18.8357 45.1254 20.0786 44.5582 22.3943 40.2839ZM41.8757 33.9382C43.04 34.8339 43.3243 35.2868 44.0857 35.2868C44.42 35.2868 45.3729 35.2725 45.8143 34.6568C46.0271 34.3582 46.11 34.1668 46.1429 34.0639C45.9671 33.9711 45.7343 33.7825 44.4643 33.7825C43.7429 33.7839 42.8357 33.8153 41.8757 33.9382ZM31.2043 24.5353C30.1829 28.0696 28.8343 31.8853 27.3843 35.3411C30.37 34.1825 33.6157 33.1711 36.6643 32.4553C34.7357 30.2153 32.8086 27.4182 31.2043 24.5353ZM30.3371 12.4468C30.1971 12.4939 28.4371 14.9568 30.4743 17.0411C31.83 14.0196 30.3986 12.4268 30.3371 12.4468Z" fill="#CC4B4C"/>
<path d="M59.3386 79.9993H2.09C0.935714 79.9993 0 79.0636 0 77.9093V55.7136H61.4286V77.9093C61.4286 79.0636 60.4929 79.9993 59.3386 79.9993Z" fill="#CC4B4C"/>
<path d="M15.5505 75.7136H13.2062V61.3193H17.3462C17.9577 61.3193 18.5634 61.4165 19.162 61.6122C19.7605 61.8079 20.2977 62.1008 20.7734 62.4908C21.2491 62.8808 21.6334 63.3536 21.9262 63.9065C22.2191 64.4593 22.3662 65.0808 22.3662 65.7722C22.3662 66.5022 22.242 67.1622 21.9948 67.7551C21.7477 68.3479 21.402 68.8465 20.9591 69.2493C20.5162 69.6522 19.982 69.9651 19.3577 70.1865C18.7334 70.4079 18.042 70.5179 17.2877 70.5179H15.5491V75.7136H15.5505ZM15.5505 63.0965V68.7993H17.6991C17.9848 68.7993 18.2677 68.7508 18.5491 68.6522C18.8291 68.555 19.0862 68.3951 19.3205 68.1736C19.5548 67.9522 19.7434 67.6436 19.8862 67.2465C20.0291 66.8493 20.1005 66.3579 20.1005 65.7722C20.1005 65.5379 20.0677 65.2665 20.0034 64.9622C19.9377 64.6565 19.8048 64.3636 19.6034 64.0836C19.4005 63.8036 19.1177 63.5693 18.7534 63.3808C18.3891 63.1922 17.9062 63.0979 17.3077 63.0979H15.5505V63.0965Z" fill="white"/>
<path d="M36.7418 68.1165C36.7418 69.3008 36.6146 70.3136 36.3604 71.1536C36.1061 71.9936 35.7846 72.6965 35.3932 73.2636C35.0018 73.8308 34.5632 74.2765 34.0746 74.6022C33.5861 74.9279 33.1146 75.1708 32.6589 75.3351C32.2032 75.4979 31.7861 75.6022 31.4089 75.6479C31.0318 75.6908 30.7518 75.7136 30.5689 75.7136H25.1204V61.3193H29.4561C30.6675 61.3193 31.7318 61.5122 32.6489 61.895C33.5661 62.2779 34.3289 62.7908 34.9346 63.4279C35.5404 64.0651 35.9918 64.7922 36.2918 65.6051C36.5918 66.4193 36.7418 67.2565 36.7418 68.1165ZM29.7889 73.9951C31.3775 73.9951 32.5232 73.4879 33.2261 72.4722C33.9289 71.4565 34.2804 69.985 34.2804 68.0579C34.2804 67.4593 34.2089 66.8665 34.0661 66.2808C33.9218 65.695 33.6461 65.1651 33.2361 64.6893C32.8261 64.2136 32.2689 63.8293 31.5661 63.5365C30.8632 63.2436 29.9518 63.0965 28.8318 63.0965H27.4646V73.9951H29.7889Z" fill="white"/>
<path d="M42.5232 63.0965V67.6279H48.5389V69.2293H42.5232V75.7136H40.1403V61.3193H49.1432V63.0965H42.5232Z" fill="white"/>
</svg>
