<?xml version="1.0" encoding="utf-8"?>
<!-- Generator: Adobe Illustrator 25.2.0, SVG Export Plug-In . SVG Version: 6.00 Build 0)  -->
<svg version="1.1" id="Layer_1" xmlns="http://www.w3.org/2000/svg" xmlns:xlink="http://www.w3.org/1999/xlink" x="0px" y="0px"
	 viewBox="0 0 128 129.6" style="enable-background:new 0 0 128 129.6;" xml:space="preserve">
<g>
	<path d="M80.9,36.5H30c-1,0-1.9,0.8-1.9,1.9s0.8,1.9,1.9,1.9h50.9c1,0,1.9-0.8,1.9-1.9S82,36.5,80.9,36.5z"/>
	<path d="M80.9,44.1H30c-1,0-1.9,0.8-1.9,1.9s0.8,1.9,1.9,1.9h50.9c1,0,1.9-0.8,1.9-1.9S82,44.1,80.9,44.1z"/>
	<path d="M36.9,117.6c1,0,1.9-0.8,1.9-1.9v-2.6c2.7-0.8,4.5-3.2,4.5-6c0-3.4-2.7-6.2-6.2-6.2c-0.1,0-0.3,0-0.4,0h-1.9
		c-1.4,0.2-2.6-0.8-2.8-2.2c0-0.1,0-0.2,0-0.4c0-0.6,0.2-1.2,0.6-1.7c0.6-0.5,1.4-0.8,2.2-0.8h5.4c1,0,1.9-0.8,1.9-1.9
		c0-1-0.8-1.9-1.9-1.9h-1.4v-2.8c0-1-0.8-1.9-1.9-1.9c-1,0-1.9,0.8-1.9,1.9v2.8h-0.2c-3.4-0.2-6.3,2.4-6.6,5.8c0,0.1,0,0.3,0,0.4
		c0,1.6,0.6,3.2,1.7,4.3c1.3,1.3,3,2,4.9,2h1.9c2.1,0,2.8,1.3,2.8,2.4c0,0.6-0.2,1.3-0.7,1.8c-0.6,0.6-1.3,0.8-2.1,0.8h-5.4
		c-1,0-1.9,0.8-1.9,1.9c0,1,0.8,1.9,1.9,1.9H35v2.3C35,116.8,35.8,117.6,36.9,117.6z"/>
	<path d="M111.8,36.9l-5.7-3.3c-3-1.7-6.8-0.7-8.6,2.3c0,0,0,0,0,0l-34,58.5c-0.3,0.3-0.4,0.7-0.5,1.2l-2.7,20c-0.1,1,0.6,2,1.6,2.1
		c0.5,0.1,1-0.1,1.4-0.4l16-12.3c0.2-0.1,0.4-0.3,0.5-0.5l34.3-58.9C115.8,42.5,114.8,38.7,111.8,36.9z M96.4,45.3l9.9,6.1
		l-28.6,49.1l-10-5.8L96.4,45.3z M66.4,98.2l8.8,5.1l-10.6,8.1L66.4,98.2z M110.8,43.6l-2.6,4.5L98.3,42l2.5-4.2
		c0.7-1.2,2.2-1.6,3.4-0.9l5.7,3.3C111.1,40.9,111.5,42.4,110.8,43.6z"/>
	<path d="M70.8,74.2H30c-1,0-1.9,0.8-1.9,1.9S28.9,78,30,78h38.7L70.8,74.2z"/>
	<path d="M92.3,119.5c0,1-0.8,1.9-1.9,1.9H18.7c-1,0-1.9-0.8-1.9-1.9V10.1c0-1,0.8-1.9,1.9-1.9h50.9v17.1c0,3.1,2.5,5.5,5.5,5.6
		h17.1v6.5l2-3.4c0.5-0.8,1.1-1.6,1.8-2.2v-2.2c0-0.7-0.2-1.4-0.6-1.9L72.9,5c-0.6-0.4-1.4-0.6-2.2-0.6H18.7c-3.1,0-5.7,2.5-5.7,5.7
		v109.4c0,3.1,2.5,5.7,5.7,5.7h71.7c3.1,0,5.7-2.5,5.7-5.7V83.9l-3.8,6.5V119.5z M75.2,27.1c-1,0-1.8-0.8-1.7-1.8V10.9l16.2,16.2
		L75.2,27.1z"/>
	<path d="M75.2,66.7H30c-1,0-1.9,0.8-1.9,1.9c0,1,0.8,1.9,1.9,1.9h43L75.2,66.7z"/>
	<path d="M79.6,59.1H30c-1,0-1.9,0.8-1.9,1.9s0.8,1.9,1.9,1.9h47.4L79.6,59.1z"/>
	<path d="M82,55l0.7-1.3c0.2-1-0.5-1.9-1.5-2.1c-0.1,0-0.2,0-0.4,0H30c-1,0-1.9,0.8-1.9,1.9s0.8,1.9,1.9,1.9h50.9
		C81.3,55.4,81.7,55.2,82,55z"/>
</g>
</svg>
