<?xml version="1.0" encoding="utf-8"?>
<!-- Generator: Adobe Illustrator 25.2.0, SVG Export Plug-In . SVG Version: 6.00 Build 0)  -->
<svg version="1.1" id="Layer_1" xmlns="http://www.w3.org/2000/svg" xmlns:xlink="http://www.w3.org/1999/xlink" x="0px" y="0px"
	 viewBox="0 0 51 51" style="enable-background:new 0 0 51 51;" xml:space="preserve">
<style type="text/css">
	.st0{fill:#231F20;}
</style>
<path class="st0" d="M41.4,7.4l-3.2-3.2l-3.2,3.2l-3.2-3.2l-3.2,3.2l-3.2-3.2l-3.2,3.2l-3.2-3.2l-3.2,3.2l-3.2-3.2V34H6.4v6.4
	c0,3.5,2.8,6.4,6.4,6.4h25.5c3.5,0,6.4-2.8,6.4-6.4V4.2L41.4,7.4z M40.4,40.4c0,1.2-1,2.1-2.1,2.1s-2.1-1-2.1-2.1V34H17V10.6h23.4
	V40.4z"/>
<path class="st0" d="M31.9,14.9H19.1v4.2h12.8V14.9z"/>
<path class="st0" d="M38.2,14.9H34v4.2h4.2V14.9z"/>
<path class="st0" d="M31.9,21.2H19.1v4.2h12.8V21.2z"/>
<path class="st0" d="M38.2,21.2H34v4.2h4.2V21.2z"/>
</svg>
