<svg width="15" height="16" viewBox="0 0 15 16" fill="none" xmlns="http://www.w3.org/2000/svg">
<path d="M14.0751 13.0786C12.3748 12.3107 12.3101 9.01476 12.3088 8.9316V6.7204C12.3088 4.59223 11.0084 2.76224 9.1604 1.98304C9.15643 0.888893 8.26529 0 7.17033 0C6.07534 0 5.18423 0.888945 5.18023 1.98299C3.33232 2.76218 2.03185 4.59218 2.03185 6.72035V8.93155C2.03064 9.01471 1.96591 12.3107 0.265538 13.0785C0.0718375 13.1661 -0.0346205 13.3769 0.010164 13.5847C0.0548962 13.7925 0.238662 13.9409 0.451238 13.9409H4.76185C4.85021 14.427 5.08007 14.8793 5.43163 15.2456C5.89856 15.7321 6.51605 16 7.17025 16C7.8245 16 8.442 15.7321 8.90887 15.2456C9.26048 14.8793 9.49034 14.427 9.57865 13.9409H13.8893C14.1018 13.9409 14.2856 13.7925 14.3304 13.5847C14.3752 13.3769 14.2688 13.1661 14.0751 13.0786ZM11.8353 11.4996C12.014 12.0415 12.2671 12.5858 12.626 13.0386H1.71459C2.07344 12.5858 2.32654 12.0416 2.50529 11.4996H11.8353ZM7.17033 0.902357C7.66563 0.902357 8.0844 1.23517 8.21543 1.68882C7.87786 1.61881 7.52832 1.58189 7.17033 1.58189C6.81234 1.58189 6.4628 1.61878 6.12523 1.68882C6.25629 1.2352 6.67506 0.902357 7.17033 0.902357ZM2.9342 8.93432V6.72032C2.9342 4.38454 4.8345 2.48425 7.17033 2.48425C9.50616 2.48425 11.4065 4.38454 11.4065 6.72032V8.938C11.4071 9.00587 11.4176 9.71916 11.5974 10.5972H2.74317C2.92304 9.71832 2.93366 9.00378 2.9342 8.93432ZM7.17033 15.0977C6.48167 15.0977 5.88065 14.6012 5.68773 13.941H8.65287C8.45996 14.6012 7.85904 15.0977 7.17033 15.0977Z" fill="black"/>
<path d="M7.1703 3.11731C5.22912 3.11731 3.64984 4.69653 3.64984 6.63769C3.64984 6.88687 3.85186 7.08888 4.10103 7.08888C4.35021 7.08888 4.55222 6.88687 4.55222 6.63769C4.55222 5.1941 5.72669 4.01967 7.17033 4.01967C7.41951 4.01967 7.62152 3.81765 7.62152 3.56848C7.62149 3.31927 7.41948 3.11731 7.1703 3.11731Z" fill="black"/>
</svg>
