<?xml version="1.0" encoding="utf-8"?>
<!-- Generator: Adobe Illustrator 25.2.0, SVG Export Plug-In . SVG Version: 6.00 Build 0)  -->
<svg version="1.1" id="Layer_1" xmlns="http://www.w3.org/2000/svg" xmlns:xlink="http://www.w3.org/1999/xlink" x="0px" y="0px"
	 viewBox="0 0 51 51" style="enable-background:new 0 0 51 51;" xml:space="preserve">
<style type="text/css">
	.st0{fill:#231F20;}
</style>
<path class="st0" d="M40.4,6.4h-2.1V2.1H34v4.2H17V2.1h-4.2v4.2h-2.1c-2.3,0-4.2,1.9-4.2,4.2v29.8c0,2.3,1.9,4.2,4.2,4.2h29.8
	c2.3,0,4.2-1.9,4.2-4.2V10.6C44.6,8.3,42.7,6.4,40.4,6.4z M40.4,40.4H10.6V19.1h29.8V40.4z M10.6,14.9v-4.2h29.8v4.2H10.6z
	 M22.4,37.1L35,24.5l-2.3-2.3L22.4,32.6L18,28.1l-2.3,2.3L22.4,37.1z"/>
</svg>
