<?xml version="1.0" encoding="utf-8"?>
<!-- Generator: Adobe Illustrator 25.2.0, SVG Export Plug-In . SVG Version: 6.00 Build 0)  -->
<svg version="1.1" id="Layer_1" xmlns="http://www.w3.org/2000/svg" xmlns:xlink="http://www.w3.org/1999/xlink" x="0px" y="0px"
	 viewBox="0 0 51 51" style="enable-background:new 0 0 51 51;" xml:space="preserve">
<style type="text/css">
	.st0{fill:#231F20;}
</style>
<path class="st0" d="M46.8,6.4l-3.5,3.5l-3.5-3.5l-3.5,3.5l-3.5-3.5L29,9.9l-3.5-3.5L22,9.9l-3.5-3.5l-3.5,3.5l-3.5-3.5L7.8,9.9
	L4.2,6.4v34c0,2.3,1.9,4.2,4.2,4.2h34c2.3,0,4.2-1.9,4.2-4.2V6.4z M23.4,40.4H8.5V27.6h14.9V40.4z M42.5,40.4H27.6v-4.2h14.9V40.4z
	 M42.5,31.9H27.6v-4.2h14.9V31.9z M42.5,23.4h-34V17h34V23.4z"/>
</svg>
