<svg width="17" height="17" viewBox="0 0 17 17" fill="none" xmlns="http://www.w3.org/2000/svg">
<path d="M16.2273 0H0.772727C0.345976 0 0 0.345976 0 0.772727V16.2273C0 16.654 0.345976 17 0.772727 17H16.2273C16.654 17 17 16.654 17 16.2273V0.772727C17 0.345976 16.654 0 16.2273 0ZM13.1364 9.27273H9.27273V13.1364C9.27273 13.5631 8.92675 13.9091 8.5 13.9091C8.07325 13.9091 7.72727 13.5631 7.72727 13.1364V9.27273H3.86364C3.43688 9.27273 3.09091 8.92675 3.09091 8.5C3.09091 8.07325 3.43688 7.72727 3.86364 7.72727H7.72727V3.86364C7.72727 3.43688 8.07325 3.09091 8.5 3.09091C8.92675 3.09091 9.27273 3.43688 9.27273 3.86364V7.72727H13.1364C13.5631 7.72727 13.9091 8.07325 13.9091 8.5C13.9091 8.92675 13.5631 9.27273 13.1364 9.27273Z" fill="black"/>
</svg>
