<?xml version="1.0" encoding="utf-8"?>
<!-- Generator: Adobe Illustrator 25.2.0, SVG Export Plug-In . SVG Version: 6.00 Build 0)  -->
<svg version="1.1" id="Layer_1" xmlns="http://www.w3.org/2000/svg" xmlns:xlink="http://www.w3.org/1999/xlink" x="0px" y="0px"
	 viewBox="0 0 51 51" style="enable-background:new 0 0 51 51;" xml:space="preserve">
<style type="text/css">
	.st0{fill:#231F20;}
</style>
<path class="st0" d="M25.5,4.1c-11.7,0-21.2,9.5-21.2,21.2s9.5,21.2,21.2,21.2h10.6v-4.2H25.5c-9.2,0-17-7.8-17-17s7.8-17,17-17
	s17,7.8,17,17v3c0,1.7-1.5,3.3-3.2,3.3s-3.2-1.7-3.2-3.3v-3c0-5.9-4.8-10.6-10.6-10.6s-10.6,4.8-10.6,10.6S19.6,36,25.5,36
	c2.9,0,5.6-1.2,7.5-3.1c1.4,1.9,3.8,3.1,6.3,3.1c4.2,0,7.4-3.4,7.4-7.6v-3C46.8,13.7,37.2,4.1,25.5,4.1z M25.5,31.8
	c-3.5,0-6.4-2.8-6.4-6.4S22,19,25.5,19s6.4,2.8,6.4,6.4S29,31.8,25.5,31.8z"/>
</svg>
