<svg width="14" height="14" viewBox="0 0 14 14" fill="none" xmlns="http://www.w3.org/2000/svg">
<path d="M13.9514 6.26262C13.4388 1.44607 9.03748 -0.272076 6.23689 0.0343273C4.14934 0.263414 2.3052 1.40598 1.14258 3.16136C0.96504 3.43054 1.02231 3.78562 1.29149 3.96603C1.56067 4.14643 1.91575 4.0548 2.09615 3.78848C3.07836 2.32806 4.62756 1.37448 6.35717 1.19694C9.32384 0.890539 12.1874 2.69746 12.7916 6.38003C13.2355 9.08325 11.1136 12.468 7.60855 12.8145C5.47232 13.0264 3.39049 12.0728 2.18493 10.3375L3.28741 10.5809C3.58522 10.641 3.91167 10.4606 3.9718 10.1342C4.03194 9.83637 3.85153 9.50992 3.52508 9.44979L1.20272 8.94293C1.05381 8.9143 0.572729 8.93148 0.486822 9.38965L0.0114671 11.7435C-0.0486682 12.0413 0.131738 12.3678 0.458186 12.4279C0.830452 12.4594 1.08245 12.2504 1.14258 11.9526L1.32012 11.145C3.59667 14.3322 7.48542 14.0029 7.72596 13.98C11.4543 13.6134 14.4038 10.4835 13.9514 6.26262Z" fill="#808080"/>
<path d="M7.455 3.69971C7.12855 3.69971 6.85938 3.96888 6.85938 4.29533V7.00714C6.85938 7.15605 6.91951 7.30496 7.03692 7.42523L9.74873 10.137C10.0981 10.4692 10.4646 10.2573 10.6135 10.1657C10.8512 9.928 10.8512 9.57005 10.6135 9.33237L8.05063 6.76947V4.2982C8.05349 3.96888 7.78431 3.69971 7.455 3.69971Z" fill="#808080"/>
</svg>
