<svg width="17" height="11" viewBox="0 0 17 11" fill="none" xmlns="http://www.w3.org/2000/svg">
<path d="M13.3515 6.74754C13.5139 6.49327 13.6545 6.22761 13.7741 5.95355H14.7002C15.9683 5.95355 17 4.92187 17 3.6538C17 2.38578 15.9683 1.35412 14.7002 1.35412H14.2533V0H2.7467V3.65374C2.7467 4.75426 3.05857 5.82409 3.64856 6.74747C3.91422 7.16328 4.23081 7.54033 4.58864 7.87223H0V8.71383C0 9.92797 0.987793 10.9158 2.2019 10.9158H14.7981C16.0122 10.9158 17 9.92797 17 8.71383V7.87223H12.4114C12.7692 7.5404 13.0858 7.16331 13.3515 6.74754ZM14.2533 3.6538V2.36406H14.7003C15.4115 2.36406 15.9901 2.94266 15.9901 3.6538C15.9901 4.36505 15.4114 4.94361 14.7003 4.94361H14.1069C14.2033 4.52333 14.2533 4.09106 14.2533 3.6538ZM4.49962 6.20377C4.01356 5.44302 3.75663 4.56128 3.75663 3.65377V1.00997H13.2434V3.65377C13.2434 4.56128 12.9865 5.44302 12.5004 6.20377C12.0472 6.91309 11.4163 7.48804 10.6709 7.87229H6.32911C5.58374 7.48807 4.95284 6.91309 4.49962 6.20377ZM15.9782 8.88223C15.8962 9.4601 15.3982 9.90595 14.7981 9.90595H2.2019C1.60175 9.90595 1.1038 9.4601 1.02176 8.88223H6.0937H10.9063H15.9782Z" fill="white"/>
</svg>
