<?xml version="1.0" encoding="utf-8"?>
<!-- Generator: Adobe Illustrator 25.2.0, SVG Export Plug-In . SVG Version: 6.00 Build 0)  -->
<svg version="1.1" id="Layer_1" xmlns="http://www.w3.org/2000/svg" xmlns:xlink="http://www.w3.org/1999/xlink" x="0px" y="0px"
	 viewBox="0 0 51 51" style="enable-background:new 0 0 51 51;" xml:space="preserve">
<style type="text/css">
	.st0{fill:#231F20;}
</style>
<path class="st0" d="M40.4,8.5h-2.1V4.2H34v4.2H17V4.2h-4.2v4.2h-2.1c-2.4,0-4.2,1.9-4.2,4.2l0,29.8c0,2.3,1.9,4.2,4.2,4.2h29.8
	c2.3,0,4.2-1.9,4.2-4.2V12.8C44.6,10.4,42.7,8.5,40.4,8.5z M40.4,42.5H10.6V21.2h29.8V42.5z M40.4,17H10.6v-4.2h29.8V17z M19.1,29.8
	h-4.2v-4.2h4.2V29.8z M27.6,29.8h-4.2v-4.2h4.2V29.8z M36.1,29.8h-4.2v-4.2h4.2V29.8z M19.1,38.2h-4.2V34h4.2V38.2z M27.6,38.2h-4.2
	V34h4.2V38.2z M36.1,38.2h-4.2V34h4.2V38.2z"/>
</svg>
