<?xml version="1.0" encoding="utf-8"?>
<!-- Generator: Adobe Illustrator 25.2.0, SVG Export Plug-In . SVG Version: 6.00 Build 0)  -->
<svg version="1.1" id="Layer_1" xmlns="http://www.w3.org/2000/svg" xmlns:xlink="http://www.w3.org/1999/xlink" x="0px" y="0px"
	 viewBox="0 0 51 51" style="enable-background:new 0 0 51 51;" xml:space="preserve">
<style type="text/css">
	.st0{fill:#231F20;}
</style>
<path class="st0" d="M23.8,42.5H10.6V21.2h29.8v9.3l4.2-4.2V12.8c0-2.3-1.9-4.2-4.2-4.2h-2.1V4.2H34v4.2H17V4.2h-4.2v4.2h-2.1
	c-2.4,0-4.2,1.9-4.2,4.2l0,29.8c0,2.3,1.9,4.2,4.2,4.2h17.4L23.8,42.5z M10.6,12.8h29.8V17H10.6V12.8z M35.1,47.8l-7.5-7.5l3-3
	l4.5,4.5l9-9l3,3L35.1,47.8z M22.1,29.8l3.4,3.4l-3,3l-3.4-3.4l-3.4,3.4l-3-3l3.4-3.4l-3.4-3.4l3-3l3.4,3.4l3.4-3.4l3,3L22.1,29.8z"
	/>
</svg>
