<svg width="12" height="11" viewBox="0 0 12 11" fill="none" xmlns="http://www.w3.org/2000/svg">
<path d="M10.9565 2.61905H9.30261L8.34783 1.57143H5.21739V2.61905H7.8887L8.84348 3.66667H10.9565V9.95238H2.6087V5.2381H1.56522V9.95238C1.56522 10.5286 2.03478 11 2.6087 11H10.9565C11.5304 11 12 10.5286 12 9.95238V3.66667C12 3.09048 11.5304 2.61905 10.9565 2.61905ZM4.17391 6.80952C4.17391 8.25524 5.34261 9.42857 6.78261 9.42857C8.22261 9.42857 9.3913 8.25524 9.3913 6.80952C9.3913 5.36381 8.22261 4.19048 6.78261 4.19048C5.34261 4.19048 4.17391 5.36381 4.17391 6.80952ZM6.78261 5.2381C7.64348 5.2381 8.34783 5.94524 8.34783 6.80952C8.34783 7.67381 7.64348 8.38095 6.78261 8.38095C5.92174 8.38095 5.21739 7.67381 5.21739 6.80952C5.21739 5.94524 5.92174 5.2381 6.78261 5.2381ZM2.6087 2.61905H4.17391V1.57143H2.6087V0H1.56522V1.57143H0V2.61905H1.56522V4.19048H2.6087V2.61905Z" fill="black"/>
</svg>
