<svg width="27" height="36" viewBox="0 0 27 36" fill="none" xmlns="http://www.w3.org/2000/svg">
<path d="M19.8644 15.1889C19.9773 15.0226 20.0866 14.8499 20.1933 14.6727C23.9929 14.3948 27 11.2168 27 7.34745V3.24548C27 2.58574 26.4651 2.05081 25.8053 2.05081H22.8912C22.8954 1.76847 22.8983 1.48388 22.8983 1.19467C22.8983 0.534927 22.3633 0 21.7036 0H5.2964C4.63667 0 4.10174 0.534927 4.10174 1.19467C4.10174 1.48376 4.10458 1.76835 4.10885 2.05081H1.19467C0.534927 2.05081 0 2.58574 0 3.24548V7.34733C0 11.2166 3.00711 14.3947 6.80672 14.6726C6.91339 14.8499 7.02268 15.0225 7.13564 15.1888C8.74149 17.5543 10.6805 18.4363 12.3053 18.7002V20.6454C10.3425 21.0997 8.79376 22.6475 8.33955 24.6104H3.24559C2.58586 24.6104 2.05093 25.1454 2.05093 25.8051V34.0086C2.05093 34.6683 2.58586 35.2032 3.24559 35.2032H23.7544C24.4141 35.2032 24.9491 34.6683 24.9491 34.0086V25.8051C24.9491 25.1454 24.4141 24.6104 23.7544 24.6104H18.6606C18.2064 22.6475 16.6575 21.0997 14.6948 20.6454V18.7002C16.3195 18.4364 18.2585 17.5544 19.8644 15.1889ZM24.6107 4.44014V7.34733C24.6107 9.4529 23.2906 11.255 21.4351 11.9725C22.1556 9.90557 22.6114 7.38882 22.7993 4.44014H24.6107V4.44014ZM2.38933 7.34733V4.44014H4.20071C4.38846 7.38882 4.84445 9.90569 5.56488 11.9725C3.7094 11.255 2.38933 9.4529 2.38933 7.34733ZM6.50458 2.38933H20.4955C20.2913 11.318 17.7676 16.407 13.5001 16.407C9.23268 16.407 6.70869 11.3181 6.50458 2.38933ZM16.4071 25.8053C16.4071 26.4651 16.942 27 17.6017 27H22.5597V32.814H4.44026V27H9.39826C10.058 27 10.5929 26.4651 10.5929 25.8053C10.5929 24.2023 11.897 22.8981 13.5 22.8981C15.103 22.8981 16.4071 24.2023 16.4071 25.8053Z" fill="white"/>
<path d="M8.20359 29.9071C8.20359 30.5668 8.73852 31.1017 9.39826 31.1017H17.6017C18.2615 31.1017 18.7964 30.5668 18.7964 29.9071C18.7964 29.2473 18.2615 28.7124 17.6017 28.7124H9.39826C8.73852 28.7124 8.20359 29.2473 8.20359 29.9071Z" fill="white"/>
</svg>
